<svg width="26" height="26" viewBox="0 0 26 26" fill="none" xmlns="http://www.w3.org/2000/svg">
<path d="M8.46667 1C9.52267 1 10.5787 1 11.6667 1C11.6667 1.34435 11.6667 1.6887 11.6667 2.04348C14.1307 2.04348 16.5947 2.04348 19.1333 2.04348C19.1333 4.62609 19.1333 7.2087 19.1333 9.86957C21.0693 9.86957 23.0053 9.86957 25 9.86957C25 14.8626 25 19.8557 25 25C20.776 25 16.552 25 12.2 25C12.2 24.4835 12.2 23.967 12.2 23.4348C8.504 23.4348 4.808 23.4348 1 23.4348C1 16.3757 1 9.31652 1 2.04348C3.464 2.04348 5.928 2.04348 8.46667 2.04348C8.46667 1.69913 8.46667 1.35478 8.46667 1ZM2.06667 3.6087C2.01285 4.95577 1.99215 6.28859 1.99583 7.63587C1.99532 8.03921 1.99481 8.44256 1.99429 8.85812C1.99392 9.71251 1.99491 10.5669 1.99714 11.4213C1.99999 12.7336 1.99716 14.0457 1.99375 15.358C1.9941 16.1861 1.99479 17.0143 1.99583 17.8424C1.99475 18.2375 1.99367 18.6326 1.99256 19.0397C1.82958 20.8679 1.82958 20.8679 2.6 22.3913C3.31609 22.4363 4.03453 22.4472 4.75208 22.4423C5.14056 22.441 5.52904 22.4396 5.9293 22.4383C6.42563 22.4336 6.92196 22.4288 7.43333 22.4239C9.00633 22.4132 10.5793 22.4024 12.2 22.3913C12.2 18.2591 12.2 14.127 12.2 9.86957C14.136 9.86957 16.072 9.86957 18.0667 9.86957C18.081 8.83699 18.0914 7.80437 18.1 6.77174C18.1062 6.19671 18.1124 5.62167 18.1188 5.02921C18.2334 3.65332 18.2334 3.65332 17.5333 3.08696C16.6447 3.06575 15.7553 3.06467 14.8667 3.08696C14.8667 4.12 14.8667 5.15304 14.8667 6.21739C11.6987 6.21739 8.53067 6.21739 5.26667 6.21739C5.26667 5.18435 5.26667 4.1513 5.26667 3.08696C3.51237 2.89555 3.51237 2.89555 2.06667 3.6087ZM6.33333 3.08696C6.50933 3.77565 6.68533 4.46435 6.86667 5.17391C8.97867 5.17391 11.0907 5.17391 13.2667 5.17391C13.4427 4.48522 13.6187 3.79652 13.8 3.08696C13.096 3.08696 12.392 3.08696 11.6667 3.08696C11.6667 3.4313 11.6667 3.77565 11.6667 4.13043C10.6107 4.13043 9.55467 4.13043 8.46667 4.13043C8.46667 3.78609 8.46667 3.44174 8.46667 3.08696C7.76267 3.08696 7.05867 3.08696 6.33333 3.08696ZM13.2667 11.4348C13.2137 12.3194 13.1969 13.2062 13.1958 14.0924C13.1951 14.6298 13.1945 15.1671 13.1938 15.7208C13.1958 16.2864 13.1979 16.852 13.2 17.4348C13.1979 18.0004 13.1959 18.566 13.1938 19.1488C13.1944 19.6861 13.1951 20.2235 13.1958 20.7772C13.1964 21.2739 13.197 21.7705 13.1977 22.2823C13.1349 23.4215 13.1349 23.4215 13.8 23.9565C14.5096 24.0078 15.2218 24.0248 15.9333 24.0258C16.3623 24.0265 16.7913 24.0272 17.2333 24.0279C17.9098 24.0248 17.9098 24.0248 18.6 24.0217C19.051 24.0238 19.502 24.0258 19.9667 24.0279C20.3957 24.0272 20.8247 24.0265 21.2667 24.0258C21.8607 24.0249 21.8607 24.0249 22.4667 24.024C23.4151 24.0554 23.4151 24.0554 23.9333 23.4348C23.9863 22.5501 24.0031 21.6633 24.0042 20.7772C24.0049 20.2398 24.0055 19.7024 24.0063 19.1488C24.0032 18.3004 24.0032 18.3004 24 17.4348C24.0021 16.8692 24.0041 16.3035 24.0063 15.7208C24.0052 14.9147 24.0052 14.9147 24.0042 14.0924C24.0036 13.5957 24.003 13.099 24.0023 12.5873C24.0651 11.4481 24.0651 11.4481 23.4 10.913C22.6904 10.8617 21.9782 10.8448 21.2667 10.8438C20.8377 10.8431 20.4087 10.8424 19.9667 10.8417C19.5157 10.8437 19.0647 10.8457 18.6 10.8478C18.149 10.8458 17.698 10.8438 17.2333 10.8417C16.8043 10.8424 16.3753 10.8431 15.9333 10.8438C15.3393 10.8446 15.3393 10.8446 14.7333 10.8455C13.7849 10.8142 13.7849 10.8142 13.2667 11.4348Z" fill="#424246" stroke="#424246" stroke-width="0.5"/>
<path d="M5.73324 14.4275C6.10724 14.4302 6.48124 14.4329 6.86657 14.4356C7.24057 14.433 7.61457 14.4303 7.9999 14.4275C8.9999 14.5661 8.9999 14.5661 10.0666 15.6096C10.2082 16.5878 10.2082 16.5878 10.1999 17.6965C10.2027 18.0624 10.2054 18.4283 10.2082 18.8052C10.0666 19.7835 10.0666 19.7835 8.9999 20.8269C7.9999 20.9655 7.9999 20.9655 6.86657 20.9574C6.49257 20.9601 6.11857 20.9628 5.73324 20.9655C4.73324 20.8269 4.73324 20.8269 3.66657 19.7835C3.5249 18.8052 3.5249 18.8052 3.53324 17.6965C3.53049 17.3306 3.52774 16.9648 3.5249 16.5878C3.73002 15.1714 4.28537 14.6281 5.73324 14.4275ZM5.7999 16.1313C5.6239 16.9922 5.4479 17.853 5.26657 18.74C6.58657 18.9983 6.58657 18.9983 7.93324 19.2617C8.10924 18.7452 8.28524 18.2287 8.46657 17.6965C7.93857 17.6965 7.41057 17.6965 6.86657 17.6965C6.86657 17.18 6.86657 16.6635 6.86657 16.1313C6.51457 16.1313 6.16257 16.1313 5.7999 16.1313Z" fill="#424246" stroke="#424246" stroke-width="0.5"/>
<path d="M14.3335 11.9565C17.1495 11.9565 19.9655 11.9565 22.8668 11.9565C22.8668 12.9896 22.8668 14.0226 22.8668 15.087C20.0508 15.087 17.2348 15.087 14.3335 15.087C14.3335 14.0539 14.3335 13.0209 14.3335 11.9565ZM15.4002 13C15.4002 13.3444 15.4002 13.6887 15.4002 14.0435C17.5122 14.0435 19.6242 14.0435 21.8002 14.0435C21.8002 13.6992 21.8002 13.3548 21.8002 13C19.6882 13 17.5762 13 15.4002 13Z" fill="#424246" stroke="#424246" stroke-width="0.5"/>
<path d="M6.8665 8.30518C7.2185 8.30518 7.5705 8.30518 7.93317 8.30518C7.93317 9.33822 7.93317 10.3713 7.93317 11.4356C8.28517 11.4356 8.63717 11.4356 8.99984 11.4356C8.99984 10.7469 8.99984 10.0582 8.99984 9.34865C9.35184 9.34865 9.70384 9.34865 10.0665 9.34865C10.0665 10.0373 10.0665 10.726 10.0665 11.4356C10.4185 11.4356 10.7705 11.4356 11.1332 11.4356C11.1332 11.78 11.1332 12.1243 11.1332 12.4791C8.66917 12.4791 6.20517 12.4791 3.6665 12.4791C3.6665 12.1347 3.6665 11.7904 3.6665 11.4356C4.0185 11.4356 4.3705 11.4356 4.73317 11.4356C4.73317 10.9191 4.73317 10.4026 4.73317 9.87039C5.08517 9.87039 5.43717 9.87039 5.79984 9.87039C5.79984 10.3869 5.79984 10.9034 5.79984 11.4356C6.15184 11.4356 6.50384 11.4356 6.8665 11.4356C6.8665 10.4026 6.8665 9.36952 6.8665 8.30518Z" fill="#424246" stroke="#424246" stroke-width="0.5"/>
<path d="M20.7334 21.3474C21.4374 21.3474 22.1414 21.3474 22.8667 21.3474C22.8667 21.8639 22.8667 22.3805 22.8667 22.9126C22.1627 22.9126 21.4587 22.9126 20.7334 22.9126C20.7334 22.3961 20.7334 21.8796 20.7334 21.3474Z" fill="#424246" stroke="#424246" stroke-width="0.5"/>
<path d="M17.5332 21.3474C18.2372 21.3474 18.9412 21.3474 19.6665 21.3474C19.6665 21.8639 19.6665 22.3805 19.6665 22.9126C18.9625 22.9126 18.2585 22.9126 17.5332 22.9126C17.5332 22.3961 17.5332 21.8796 17.5332 21.3474Z" fill="#424246" stroke="#424246" stroke-width="0.5"/>
<path d="M14.3335 21.3474C15.0375 21.3474 15.7415 21.3474 16.4668 21.3474C16.4668 21.8639 16.4668 22.3805 16.4668 22.9126C15.7628 22.9126 15.0588 22.9126 14.3335 22.9126C14.3335 22.3961 14.3335 21.8796 14.3335 21.3474Z" fill="#424246" stroke="#424246" stroke-width="0.5"/>
<path d="M20.7334 18.7397C21.4374 18.7397 22.1414 18.7397 22.8667 18.7397C22.8667 19.2563 22.8667 19.7728 22.8667 20.305C22.1627 20.305 21.4587 20.305 20.7334 20.305C20.7334 19.7884 20.7334 19.2719 20.7334 18.7397Z" fill="#424246" stroke="#424246" stroke-width="0.5"/>
<path d="M17.5332 18.7397C18.2372 18.7397 18.9412 18.7397 19.6665 18.7397C19.6665 19.2563 19.6665 19.7728 19.6665 20.305C18.9625 20.305 18.2585 20.305 17.5332 20.305C17.5332 19.7884 17.5332 19.2719 17.5332 18.7397Z" fill="#424246" stroke="#424246" stroke-width="0.5"/>
<path d="M14.3335 18.7397C15.0375 18.7397 15.7415 18.7397 16.4668 18.7397C16.4668 19.2563 16.4668 19.7728 16.4668 20.305C15.7628 20.305 15.0588 20.305 14.3335 20.305C14.3335 19.7884 14.3335 19.2719 14.3335 18.7397Z" fill="#424246" stroke="#424246" stroke-width="0.5"/>
<path d="M20.7334 16.1301C21.4374 16.1301 22.1414 16.1301 22.8667 16.1301C22.8667 16.6466 22.8667 17.1632 22.8667 17.6953C22.1627 17.6953 21.4587 17.6953 20.7334 17.6953C20.7334 17.1788 20.7334 16.6623 20.7334 16.1301Z" fill="#424246" stroke="#424246" stroke-width="0.5"/>
<path d="M17.5332 16.1301C18.2372 16.1301 18.9412 16.1301 19.6665 16.1301C19.6665 16.6466 19.6665 17.1632 19.6665 17.6953C18.9625 17.6953 18.2585 17.6953 17.5332 17.6953C17.5332 17.1788 17.5332 16.6623 17.5332 16.1301Z" fill="#424246" stroke="#424246" stroke-width="0.5"/>
<path d="M14.3335 16.1301C15.0375 16.1301 15.7415 16.1301 16.4668 16.1301C16.4668 16.6466 16.4668 17.1632 16.4668 17.6953C15.7628 17.6953 15.0588 17.6953 14.3335 17.6953C14.3335 17.1788 14.3335 16.6623 14.3335 16.1301Z" fill="#424246" stroke="#424246" stroke-width="0.5"/>
</svg>
