<svg width="26" height="26" viewBox="0 0 26 26" fill="none" xmlns="http://www.w3.org/2000/svg">
<path d="M1 1.5148C3.52401 1.39897 6.04802 1.28314 8.64851 1.1638C9.81888 1.08711 9.81888 1.08711 11.0129 1.00887C15.3206 0.914385 17.9306 1.55796 21.2544 3.7644C24.5226 6.42428 25.0194 9.03886 24.9994 12.6443C24.9445 13.9025 24.8473 15.1595 24.7549 16.4164C24.608 19.249 24.4611 22.0816 24.3097 25C16.6175 25 8.92531 25 1 25C1 17.2499 1 9.49977 1 1.5148ZM2.29499 2.5359C2.29499 9.61209 2.29499 16.6883 2.29499 23.9789C9.13251 23.9789 15.97 23.9789 23.0148 23.9789C23.0148 18.9245 23.0148 13.8701 23.0148 8.66247C20.4507 8.66247 17.8866 8.66247 15.2448 8.66247C15.2448 6.6407 15.2448 4.61893 15.2448 2.5359C10.9714 2.5359 6.69794 2.5359 2.29499 2.5359ZM16.5398 4.06754C16.5398 5.24691 16.5398 6.42627 16.5398 7.64138C18.0355 7.64138 19.5312 7.64138 21.0723 7.64138C20.4405 7.04424 19.806 6.44893 19.1703 5.85446C18.6407 5.35691 18.6407 5.35691 18.1004 4.84932C17.7991 4.59133 17.4978 4.33334 17.1873 4.06754C16.9736 4.06754 16.76 4.06754 16.5398 4.06754Z" fill="#424246" stroke="#424246" stroke-width="0.5"/>
<path d="M18.4821 12.2361C19.3368 12.2361 20.1915 12.2361 21.0721 12.2361C21.0721 14.2783 21.0721 14.2783 19.5748 15.5227C19.0005 15.9545 18.4263 16.3862 17.8347 16.831C17.3339 17.5418 17.3339 17.5418 16.8229 18.2669C16.5158 18.6355 16.2086 19.004 15.8922 19.3838C15.0375 19.3838 14.1828 19.3838 13.3022 19.3838C12.3411 18.602 12.3411 18.602 11.5216 17.5968C11.2445 17.2651 10.9674 16.9334 10.6819 16.5917C10.4782 16.3337 10.2746 16.0757 10.0647 15.8099C8.04328 16.4782 8.04328 16.4782 6.82728 17.8521C5.97259 17.8521 5.11789 17.8521 4.2373 17.8521C4.2373 17.1782 4.2373 16.5043 4.2373 15.8099C5.81557 14.725 5.81557 14.725 7.47477 13.7677C7.68844 13.4308 7.90211 13.0938 8.12226 12.7466C8.97695 12.7466 9.83164 12.7466 10.7122 12.7466C11.6278 13.5105 11.6278 13.5105 12.4119 14.5016C13.5119 15.9324 13.5119 15.9324 15.2447 16.831C15.4183 16.5467 15.5919 16.2624 15.7708 15.9695C16.0245 15.5799 16.2782 15.1902 16.5397 14.7888C16.8335 14.3255 17.1273 13.8622 17.43 13.3848C17.7772 13.0057 18.1244 12.6267 18.4821 12.2361Z" fill="#424246" stroke="#424246" stroke-width="0.5"/>
</svg>
