<svg width="26" height="26" viewBox="0 0 26 26" fill="none" xmlns="http://www.w3.org/2000/svg">
<path d="M9.51738 4.61204C9.9134 4.61137 10.3094 4.61071 10.7175 4.61002C12.3669 5.00998 13.1485 5.61748 14.2954 6.96325C14.5774 8.63407 14.5774 8.63407 14.5328 10.5062C14.5279 11.1213 14.523 11.7365 14.518 12.3702C14.2807 14.2975 13.6808 15.5559 12.8709 17.27C13.1832 18.8408 13.1832 18.8408 14.173 19.3635C14.5072 19.5229 14.8414 19.6824 15.1857 19.8466C16.5739 20.5138 17.6559 21.0772 18.5689 22.4233C18.5689 23.2736 18.5689 24.1239 18.5689 25C12.7712 25 6.97344 25 1 25C1 24.1497 1 23.2994 1 22.4233C2.73028 20.5455 4.45838 19.4002 6.69804 18.3006C6.46299 17.7586 6.22795 17.2165 5.98578 16.658C4.97669 13.7236 4.81176 10.5605 5.27353 7.47859C6.44722 5.35945 7.21422 4.54656 9.51738 4.61204ZM7.64771 6.44792C6.2299 8.75603 6.46508 10.9538 6.69804 13.6626C7.01597 14.9329 7.39407 16.1189 7.8573 17.3344C8.12254 18.3006 8.12254 18.3006 7.64771 19.8466C6.45404 20.5843 5.22308 21.1592 3.96773 21.763C2.74667 22.3467 2.74667 22.3467 2.42451 23.9693C7.28208 23.9693 12.1397 23.9693 17.1444 23.9693C16.826 22.3438 16.826 22.3438 15.6012 21.7993C14.7316 21.3998 13.861 21.0025 12.9896 20.6076C11.9212 19.8466 11.9212 19.8466 11.4928 18.6086C11.4436 17.1904 11.6247 16.4084 12.129 15.112C13.0079 12.5366 13.012 10.1957 12.8709 7.47859C11.0594 6.39164 9.72833 6.23884 7.64771 6.44792Z" fill="#424246" stroke="#424246" stroke-width="0.5"/>
<path d="M21.2359 1.05376C22.3674 1.29533 22.3674 1.29533 23.8513 2.26158C25.1102 4.53881 25.2118 6.43553 24.7416 9.02536C23.8513 10.6036 23.8513 10.6036 22.3674 11.602C21.1703 11.864 20.0257 11.987 18.8061 12.0449C17.5809 12.1197 16.4416 12.3451 15.2448 12.6327C15.1805 11.2254 15.1336 9.82159 15.0965 8.41339C15.0766 8.01714 15.0567 7.62089 15.0362 7.21262C14.9931 5.03431 15.0689 4.13251 16.2928 2.31996C18.0696 0.947215 19.118 0.916533 21.2359 1.05376ZM17.4113 3.54992C16.2459 5.67479 16.7621 7.69444 17.1442 10.056C20.0263 10.3383 20.0263 10.3383 22.6345 9.21861C23.5256 7.62082 23.5994 6.74096 23.3171 4.90267C22.6048 3.61433 22.6048 3.61433 21.4177 2.84133C19.7295 2.53595 18.9028 2.63676 17.4113 3.54992Z" fill="#424246" stroke="#424246" stroke-width="0.5"/>
<path d="M19.9253 4.2854C20.2387 4.2854 20.5521 4.2854 20.875 4.2854C20.875 5.30576 20.875 6.32613 20.875 7.37741C20.5616 7.37741 20.2482 7.37741 19.9253 7.37741C19.9253 6.35705 19.9253 5.33668 19.9253 4.2854Z" fill="#424246" stroke="#424246" stroke-width="0.5"/>
<path d="M19.9253 8.4082C20.2387 8.4082 20.5521 8.4082 20.875 8.4082C20.875 8.74832 20.875 9.08845 20.875 9.43887C20.5616 9.43887 20.2482 9.43887 19.9253 9.43887C19.9253 9.09875 19.9253 8.75863 19.9253 8.4082Z" fill="#424246" stroke="#424246" stroke-width="0.5"/>
</svg>
