<svg width="26" height="26" viewBox="0 0 26 26" fill="none" xmlns="http://www.w3.org/2000/svg">
<path d="M19.8857 1C22.8677 1.24742 22.8677 1.24742 24.8556 3.2268C25.3699 7.83501 24.5412 10.3508 21.8737 14.1134C22.8577 14.44 23.8418 14.7666 24.8556 15.1031C24.8556 15.7563 24.8556 16.4095 24.8556 17.0825C22.2315 17.0825 19.6074 17.0825 16.9038 17.0825C16.9038 18.0623 16.9038 19.0421 16.9038 20.0515C19.5279 20.0515 22.152 20.0515 24.8556 20.0515C24.8556 20.7047 24.8556 21.3579 24.8556 22.0309C22.2315 22.0309 19.6074 22.0309 16.9038 22.0309C16.9038 23.0107 16.9038 23.9905 16.9038 25C16.2478 25 15.5917 25 14.9158 25C14.9158 21.734 14.9158 18.468 14.9158 15.1031C15.8999 14.7765 16.8839 14.4499 17.8978 14.1134C17.1597 13.0724 17.1597 13.0724 16.4068 12.0103C14.7028 8.75836 14.5121 6.84458 14.9158 3.2268C16.9038 1.24742 16.9038 1.24742 19.8857 1ZM17.8978 4.21649C18.2258 6.17608 18.5538 8.13567 18.8917 10.1546C19.5478 10.1546 20.2038 10.1546 20.8797 10.1546C21.2077 8.19505 21.5357 6.23546 21.8737 4.21649C20.5616 4.21649 19.2496 4.21649 17.8978 4.21649Z" stroke="#B3B7C9"/>
<path d="M8.95187 1.24805C9.6079 1.24805 10.2639 1.24805 10.9398 1.24805C10.9398 4.51403 10.9398 7.78001 10.9398 11.145C7.65969 11.145 4.37954 11.145 1 11.145C1 10.4918 1 9.83856 1 9.16557C3.62412 9.16557 6.24823 9.16557 8.95187 9.16557C8.95187 8.18578 8.95187 7.20598 8.95187 6.1965C6.32775 6.1965 3.70363 6.1965 1 6.1965C1 5.5433 1 4.89011 1 4.21712C3.62412 4.21712 6.24823 4.21712 8.95187 4.21712C8.95187 3.23733 8.95187 2.25753 8.95187 1.24805Z" stroke="#B3B7C9"/>
<path d="M1 15.1021C4.28015 15.1021 7.56029 15.1021 10.9398 15.1021C10.9398 18.368 10.9398 21.634 10.9398 24.999C10.2838 24.999 9.62778 24.999 8.95187 24.999C8.95187 22.3862 8.95187 19.7734 8.95187 17.0814C6.32775 17.0814 3.70363 17.0814 1 17.0814C1 16.4282 1 15.775 1 15.1021Z" stroke="#B3B7C9"/>
</svg>
