<svg width="24" height="24" viewBox="0 0 24 24" fill="none" xmlns="http://www.w3.org/2000/svg">
<mask id="path-1-inside-1_13_963" fill="white">
<path d="M0 10.285L12 0L24 10.285"/>
</mask>
<path d="M-1.30153 8.76644C-2.14021 9.48526 -2.23737 10.7479 -1.51856 11.5865C-0.799742 12.4252 0.462854 12.5224 1.30153 11.8036L-1.30153 8.76644ZM12 0L13.3015 -1.51856C12.5526 -2.16048 11.4474 -2.16048 10.6985 -1.51856L12 0ZM22.6985 11.8036C23.5371 12.5224 24.7997 12.4252 25.5186 11.5865C26.2374 10.7479 26.1402 9.48526 25.3015 8.76644L22.6985 11.8036ZM1.30153 11.8036L13.3015 1.51856L10.6985 -1.51856L-1.30153 8.76644L1.30153 11.8036ZM10.6985 1.51856L22.6985 11.8036L25.3015 8.76644L13.3015 -1.51856L10.6985 1.51856Z" fill="white" mask="url(#path-1-inside-1_13_963)"/>
<mask id="path-3-inside-2_13_963" fill="white">
<path d="M2.72729 12.0007V21.7143C2.72729 22.9765 3.7042 23.9999 4.90911 23.9999H19.0909C20.2958 23.9999 21.2727 22.9765 21.2727 21.7143V12.0007"/>
</mask>
<path d="M4.72729 12.0007C4.72729 10.8962 3.83186 10.0007 2.72729 10.0007C1.62273 10.0007 0.727295 10.8962 0.727295 12.0007H4.72729ZM23.2727 12.0007C23.2727 10.8962 22.3773 10.0007 21.2727 10.0007C20.1682 10.0007 19.2727 10.8962 19.2727 12.0007H23.2727ZM0.727295 12.0007V21.7143H4.72729V12.0007H0.727295ZM0.727295 21.7143C0.727295 23.9925 2.5131 25.9999 4.90911 25.9999V21.9999C4.88976 21.9999 4.85649 21.995 4.81303 21.9494C4.76801 21.9023 4.72729 21.8234 4.72729 21.7143H0.727295ZM4.90911 25.9999H19.0909V21.9999H4.90911V25.9999ZM19.0909 25.9999C21.4869 25.9999 23.2727 23.9925 23.2727 21.7143H19.2727C19.2727 21.8234 19.232 21.9023 19.187 21.9494C19.1436 21.995 19.1103 21.9999 19.0909 21.9999V25.9999ZM23.2727 21.7143V12.0007H19.2727V21.7143H23.2727Z" fill="white" mask="url(#path-3-inside-2_13_963)"/>
<mask id="path-5-inside-3_13_963" fill="white">
<path d="M9.27283 23.9985V17.1418H14.7274V23.9985"/>
</mask>
<path d="M7.27283 23.9985C7.27283 25.1031 8.16826 25.9985 9.27283 25.9985C10.3774 25.9985 11.2728 25.1031 11.2728 23.9985H7.27283ZM9.27283 17.1418V15.1418C8.16826 15.1418 7.27283 16.0373 7.27283 17.1418H9.27283ZM14.7274 17.1418H16.7274C16.7274 16.0373 15.8319 15.1418 14.7274 15.1418V17.1418ZM12.7274 23.9985C12.7274 25.1031 13.6228 25.9985 14.7274 25.9985C15.8319 25.9985 16.7274 25.1031 16.7274 23.9985H12.7274ZM11.2728 23.9985V17.1418H7.27283V23.9985H11.2728ZM9.27283 19.1418H14.7274V15.1418H9.27283V19.1418ZM12.7274 17.1418V23.9985H16.7274V17.1418H12.7274Z" fill="white" mask="url(#path-5-inside-3_13_963)"/>
</svg>
