<svg width="26" height="26" viewBox="0 0 26 26" fill="none" xmlns="http://www.w3.org/2000/svg">
<path d="M24.2116 13.5646C24.7162 14.1296 24.7162 14.1296 25 15.617C24.5552 18.5984 22.776 19.6771 20.6794 21.4035C20.3041 21.7386 19.9287 22.0736 19.542 22.4187C16.9382 24.6192 15.3571 25.3302 12.1012 24.864C10.82 24.4932 10.82 24.4932 9.76741 24.0165C7.94634 23.2748 6.49233 22.9078 4.53219 23.1691C4.03264 23.542 3.53309 23.9148 3.0184 24.299C1.91459 24.0871 1.91459 24.0871 1 23.734C3.39891 20.9586 3.39891 20.9586 5.82523 20.768C7.5043 20.7782 8.7979 21.1333 10.3666 21.792C12.5307 22.6922 13.9049 22.6243 16.138 22.0391C15.7067 21.9365 15.2755 21.8338 14.8311 21.728C14.2737 21.5859 13.7163 21.4439 13.1419 21.2976C12.5858 21.16 12.0296 21.0223 11.4566 20.8805C11.0033 20.7035 10.5499 20.5266 10.0828 20.3442C9.91627 19.7849 9.74975 19.2256 9.57819 18.6493C12.3257 18.929 12.3257 18.929 15.1288 19.2143C11.843 17.3208 9.26992 15.8856 5.54139 16.3895C4.15993 16.9134 4.15993 16.9134 3.0184 17.5194C2.51884 17.5194 2.01929 17.5194 1.5046 17.5194C1.5046 16.9601 1.5046 16.4008 1.5046 15.8245C4.3835 14.1428 6.84319 13.6107 10.0828 14.1296C11.4188 14.6583 12.6965 15.2774 13.9934 15.915C15.5945 16.5841 16.5594 16.4747 18.1564 15.8245C18.6559 15.44 19.1555 15.0554 19.6702 14.6593C21.3724 13.4284 22.2267 13.3062 24.2116 13.5646ZM19.3233 16.8132C18.9154 17.1016 18.5076 17.39 18.0874 17.6871C17.7771 18.0047 17.4668 18.3222 17.1472 18.6493C17.1472 19.3951 17.1472 20.1408 17.1472 20.9092C18.6572 20.1172 19.9706 19.1953 21.3101 18.0844C21.8448 17.6474 21.8448 17.6474 22.3903 17.2016C22.6583 16.9336 22.9263 16.6656 23.2024 16.3895C23.2024 16.0166 23.2024 15.6437 23.2024 15.2595C21.4119 15.2595 20.8055 15.7336 19.3233 16.8132Z" fill="#424246" stroke="#424246" stroke-width="0.5"/>
<path d="M16.6426 1.13707C17.841 1.70203 17.841 1.70203 18.661 2.83197C18.83 5.21569 18.8374 7.3242 18.1564 9.61158C18.4894 9.84463 18.8225 10.0777 19.1656 10.3178C19.6651 10.8072 19.6651 10.8072 20.1748 11.3065C20.1748 12.0522 20.1748 12.798 20.1748 13.5663C17.011 13.5663 13.8471 13.5663 10.5874 13.5663C10.7539 12.6342 10.9204 11.702 11.092 10.7415C11.5916 10.3686 12.0911 9.99576 12.6058 9.61158C12.5225 9.33192 12.4393 9.05226 12.3535 8.76413C11.9341 6.41638 11.5858 3.85785 12.6689 1.70203C14.0743 0.862781 15.0746 0.922093 16.6426 1.13707ZM14.1196 2.83197C13.9531 3.01841 13.7866 3.20485 13.615 3.39694C13.7692 5.26717 13.9764 7.12618 14.1886 8.98923C14.1658 9.56748 14.1431 10.1457 14.1196 10.7415C13.4535 11.3008 12.7875 11.8601 12.1012 12.4364C14.2659 12.4364 16.4307 12.4364 18.661 12.4364C17.9949 11.8771 17.3288 11.3178 16.6426 10.7415C16.4576 8.87691 16.6418 7.35612 16.958 5.51556C17.0204 5.00286 17.0829 4.49015 17.1472 3.9619C16.8142 3.58903 16.4811 3.21615 16.138 2.83197C15.4719 2.83197 14.8059 2.83197 14.1196 2.83197Z" fill="#424246" stroke="#424246" stroke-width="0.5"/>
</svg>
