<svg width="24" height="24" viewBox="0 0 24 24" fill="none" xmlns="http://www.w3.org/2000/svg">
<path d="M16.7616 16.3051L16.7987 16.2789L18.0317 15.407L16.7616 16.3051ZM16.7616 16.3051L16.7298 16.3377M16.7616 16.3051L16.7298 16.3377M16.7298 16.3377L15.7896 17.2999L15.6472 17.4456M16.7298 16.3377L15.6472 17.4456M15.6472 17.4456V17.6493M15.6472 17.4456V17.6493M15.6472 17.6493V17.6537V17.6581V17.6624V17.6668V17.6712V17.6756V17.6799V17.6843V17.6887V17.693V17.6974V17.7018V17.7061V17.7105V17.7149V17.7192V17.7236V17.728V17.7324V17.7367V17.7411V17.7455V17.7498V17.7542V17.7586V17.7629V17.7673V17.7717V17.7761V17.7804V17.7848V17.7892V17.7935V17.7979V17.8023V17.8066V17.811V17.8154V17.8198V17.8241V17.8285V17.8329V17.8372V17.8416V17.846V17.8504V17.8547V17.8591V17.8635V17.8678V17.8722V17.8766V17.881V17.8853V17.8897V17.8941V17.8984V17.9028V17.9072V17.9116V17.9159V17.9203V17.9247V17.929V17.9334V17.9378V17.9422V17.9465V17.9509V17.9553V17.9596V17.964V17.9684V17.9728V17.9771V17.9815V17.9859V17.9902V17.9946V17.999V18.0034V18.0077V18.0121V18.0165V18.0209V18.0252V18.0296V18.034V18.0384V18.0427V18.0471V18.0515V18.0558V18.0602V18.0646V18.069V18.0733V18.0777V18.0821V18.0865V18.0908V18.0952V18.0996V18.104V18.1083V18.1127V18.1171V18.1215V18.1258V18.1302V18.1346V18.139V18.1433V18.1477V18.1521V18.1565V18.1609V18.1652V18.1696V18.174V18.1784V18.1827V18.1871V18.1915V18.1959V18.2002V18.2046V18.209V18.2134V18.2178V18.2221V18.2265V18.2309V18.2353V18.2397V18.244V18.2484V18.2528V18.2572V18.2615V18.2659V18.2703V18.2747V18.2791V18.2834V18.2878V18.2922V18.2966V18.301V18.3054V18.3097V18.3141V18.3185V18.3229V18.3273V18.3316V18.336V18.3404V18.3448V18.3492V18.3536V18.3579V18.3623V18.3667V18.3711V18.3755V18.3799V18.3842V18.3886V18.393V18.3974V18.4018V18.4062V18.4105V18.4149V18.4193V18.4237V18.4281V18.4325V18.4369V18.4412V18.4456V18.45V18.4544V18.4588V18.4632V18.4676V18.472V18.4763V18.4807V18.4851V18.4895V18.4939V18.4983V18.5027V18.5071V18.5114V18.5158V18.5202V18.5246V18.529V18.5334V18.5378V18.5422V18.5466V18.551V18.5553V18.5597V18.5641V18.5685V18.5729V18.5773V18.5817V18.5861V18.5905V18.5949V18.5993V18.6037V18.6081V18.6125V18.6168V18.6212V18.6256V18.63V18.6344V18.6388V18.6432V18.6476V18.652V18.6564V18.6608V18.6652V18.6696V18.674V18.6784V18.6828V18.6872V18.6916V18.696V18.7004V18.7048V18.7092V18.7136V18.718V18.7224V18.7268V18.7312V18.7356V18.74V18.7444V18.7488V18.7532V18.7576V18.762V18.7664V18.7708V18.7752V18.7796V18.784V18.7884V18.7928V18.7972V18.8016V18.806V18.8104V18.8148V18.8192V18.8236V18.8281V18.8325V18.8369V18.8413V18.8457V18.8501V18.8545V18.8589V18.8633V18.8677V18.8721V18.8765V18.8809V18.8854V18.8898V18.8942V18.8986V18.903V18.9074V18.9118V18.9162V18.9206V18.9251V18.9295V18.9339V18.9383V18.9427V18.9471V18.9515V18.956V18.9604V18.9648V18.9692V18.9736V18.978V18.9824V18.9869V18.9913V18.9957V19.0001V19.0045V19.0089V19.0134V19.0178V19.0222V19.0266V19.031V19.0355V19.0399V19.0443V19.0487V19.0531V19.0576V19.062V19.0664V19.0708V19.0753V19.0797V19.0841V19.0885V19.093V19.0974V19.1018V19.1062V19.1107V19.1151V19.1195V19.1239V19.1284V19.1328V19.1372V19.1416V19.1461V19.1505V19.1549V19.1594V19.1638V19.1682V19.1726V19.1771V19.1815V19.1859V19.1904V19.1948V19.1992V19.2037V19.2081V19.2125V19.217V19.2214V19.2258V19.2303V19.2347V19.2391V19.2436V19.248V19.2525V19.2569V19.2613V19.2658V19.2702V19.2746V19.2791V19.2835V19.288V19.2924V19.2968V19.3013V19.3057V19.3102V19.3146V19.319V19.3235V19.3279V19.3324V19.3368V19.3413V19.3457V19.3502V19.3546V19.359V19.3635V19.3679V19.3724V19.3768V19.3813V19.3857V19.3902V19.3946V19.3991V19.4035V19.408V19.4124V19.4169V19.4213V19.4258V19.4302V19.4347V19.4391V19.4436V19.448V19.4525V19.457V19.4614V19.4659V19.4703V19.4748V19.4792V19.4837V19.4882V19.4926V19.4971V19.5015V19.506V19.5104V19.5149V19.5194V19.5238V19.5283V19.5328V19.5372V19.5417V19.5461V19.5506V19.5551V19.5595V19.564V19.5685V19.5729V19.5774V19.5819V19.5863V19.5908V19.5953V19.5997V19.6042V19.6087V19.6131V19.6176V19.6221V19.6266V19.631V19.6355V19.64V19.6444V19.6489V19.6534V19.6579V19.6623V19.6668V19.6713V19.6758V19.6802V19.6847V19.6892V19.6937V19.6982V19.7026V19.7071V19.7116V19.7161V19.7206V19.725V19.7295V19.734V19.7385V19.743V19.7475V19.7519V19.7564V19.7609V19.7654V19.7699V19.7744V19.7789V19.7833V19.7878V19.7923V19.7968V19.8013V19.8058V19.8103V19.8148V19.8193V19.8238V19.8282V19.8327V19.8372V19.8417V19.8462V19.8507V19.8552V19.8597V19.8642V19.8687V19.8732V19.8777V19.8822V19.8867V19.8912V19.8957V19.9002V19.9047V19.9092V20.7361M15.6472 17.6493V20.7361M15.6472 20.7361L16.3794 20.352M15.6472 20.7361L16.3794 20.352M16.3794 20.352C17.9267 19.5404 19.2688 18.5975 20.6279 17.4704C20.6284 17.47 20.6288 17.4696 20.6293 17.4692L21.7067 16.5888L21.7261 16.5729M16.3794 20.352L21.7261 16.5729M21.7261 16.5729L21.7438 16.5551M21.7261 16.5729L21.7438 16.5551M21.7438 16.5551L22.5559 15.743L22.7024 15.5966M21.7438 16.5551L22.7024 15.5966M22.7024 15.5966V15.3895M22.7024 15.5966V15.3895M22.7024 15.3895V15.3873V15.3851V15.3829V15.3807V15.3785V15.3764V15.3742V15.372V15.3698V15.3676V15.3654V15.3632V15.3611V15.3589V15.3567V15.3545V15.3523V15.3501V15.348V15.3458V15.3436V15.3414V15.3392V15.337V15.3348V15.3327V15.3305V15.3283V15.3261V15.3239V15.3217V15.3195V15.3174V15.3152V15.313V15.3108V15.3086V15.3064V15.3043V15.3021V15.2999V15.2977V15.2955V15.2933V15.2911V15.289V15.2868V15.2846V15.2824V15.2802V15.278V15.2758V15.2737V15.2715V15.2693V15.2671V15.2649V15.2627V15.2605V15.2584V15.2562V15.254V15.2518V15.2496V15.2474V15.2452V15.2431V15.2409V15.2387V15.2365V15.2343V15.2321V15.2299V15.2278V15.2256V15.2234V15.2212V15.219V15.2168V15.2146V15.2124V15.2103V15.2081V15.2059V15.2037V15.2015V15.1993V15.1971V15.195V15.1928V15.1906V15.1884V15.1862V15.184V15.1818V15.1796V15.1775V15.1753V15.1731V15.1709V15.1687V15.1665V15.1643V15.1621V15.16V15.1578V15.1556V15.1534V15.1512V15.149V15.1468V15.1446V15.1425V15.1403V15.1381V15.1359V15.1337V15.1315V15.1293V15.1271V15.1249V15.1228V15.1206V15.1184V15.1162V15.114V15.1118V15.1096V15.1074V15.1053V15.1031V15.1009V15.0987V15.0965V15.0943V15.0921V15.0899V15.0877V15.0855V15.0834V15.0812V15.079V15.0768V15.0746V15.0724V15.0702V15.068V15.0658V15.0636V15.0615V15.0593V15.0571V15.0549V15.0527V15.0505V15.0483V15.0461V15.0439V15.0417V15.0395V15.0374V15.0352V15.033V15.0308V15.0286V15.0264V15.0242V15.022V15.0198V15.0176V15.0154V15.0132V15.0111V15.0089V15.0067V15.0045V15.0023V15.0001V14.9979V14.9957V14.9935V14.9913V14.9891V14.9869V14.9847V14.9825V14.9803V14.9782V14.976V14.9738V14.9716V14.9694V14.9672V14.965V14.9628V14.9606V14.9584V14.9562V14.954V14.9518V14.9496V14.9474V14.9452V14.943V14.9408V14.9387V14.9365V14.9343V14.9321V14.9299V14.9277V14.9255V14.9233V14.9211V14.9189V14.9167V14.9145V14.9123V14.9101V14.9079V14.9057V14.9035V14.9013V14.8991V14.8969V14.8947V14.8925V14.8903V14.8881V14.8859V14.8837V14.8815V14.8793V14.8771V14.8749V14.8727V14.8705V14.8683V14.8661V14.8639V14.8617V14.8595V14.8573V14.8551V14.8529V14.8507V14.8485V14.8463V14.8441V14.8419V14.8397V14.8375V14.8353V14.8331V14.8309V14.8287V14.8265V14.8243V14.8221V14.8199V14.8177V14.8155V14.8133V14.8111V14.8089V14.8067V14.8045V14.8023V14.8001V14.7979V14.7957V14.7935V14.7913V14.7891V14.7869V14.7847V14.7825V14.7803V14.7781V14.7759V14.7737V14.7715V14.7692V14.767V14.7648V14.7626V14.7604V14.7582V14.756V14.7538V14.7516V14.7494V14.7472V14.745V14.7428V14.7406V14.7384V14.7362V14.7339V14.7317V14.7295V14.7273V14.7251V14.7229V14.7207V14.7185V14.7163V14.7141V14.7119V14.7097V14.7074V14.7052V14.703V14.7008V14.6986V14.6964V14.6942V14.692V14.6898V14.6876V14.6853V14.6831V14.6809V14.6787V14.6765V14.6743V14.6721V14.6699V14.6677V14.6654V14.6632V14.661V14.6588V14.6566V14.6544V14.6522V14.65V14.6477V14.6455V14.6433V14.6411V14.6389V14.6367V14.6345V14.6322V14.63V14.6278V14.6256V14.6234V14.6212V14.6189V14.6167V14.6145V14.6123V14.6101V14.6079V14.6056V14.6034V14.6012V14.599V14.5968V14.5946V14.5923V14.5901V14.5879V14.5857V14.5835V14.5812V14.579V14.5768V14.5746V14.5724V14.5702V14.5679V14.5657V14.5635V14.5613V14.559V14.5568V14.5546V14.5524V14.5502V14.5479V14.5457V14.5435V14.5413V14.5391V14.5368V14.5346V14.5324V14.5302V14.5279V14.5257V14.5235V14.5213V14.519V14.5168V14.5146V14.5124V14.5101V14.5079V14.5057V14.5035V14.5012V14.499V14.4968V14.4946V14.4923V14.4901V14.4879V14.4857V14.4834V14.4812V14.479V14.4767V14.4745V14.4723V14.4701V14.4678V14.4656V14.4634V14.4611V14.4589V14.4567V14.4544V14.4522V14.45V14.4478V14.4455V14.4433V14.4411V14.4388V14.4366V14.4344V14.4321V14.4299V14.4277V14.4254V14.4232V14.421V14.4187V14.4165V14.4143V14.412V14.4098V14.4076V14.4053V14.4031V14.4009V14.3986V14.3964V14.3941V14.3919V14.3897V14.3874V14.3852V14.383V14.3807V14.3785V14.3762V14.374V14.3718V14.3695V14.3673V14.3651V14.3628V14.3606V14.3583V14.3561V14.3539V14.3516V14.3494V14.3471V14.3449V14.3426V14.3404V14.3382V14.3359V14.3337V14.3314V14.3292V14.3269V14.3247V14.3225V14.3202V14.318V14.3157V14.3135V14.3112V14.309V14.3067V14.3045V14.3023V14.3V14.2978V14.2955V14.2933V14.291V14.2888V14.2865V14.2843V14.282V14.2798V14.2775V14.2753V14.273V14.2708V14.2685V14.2663V14.264V14.2618V14.2595V13.7595M22.7024 15.3895V13.7595M22.7024 13.7595H22.2024M22.7024 13.7595H22.2024M22.2024 13.7595V14.2595V13.7595ZM15.2538 20.5527L13.9508 20.2425L12.2654 19.8131L12.2654 19.8131L12.262 19.8123L10.6082 19.4029L9.49226 18.9673L9.27048 18.2224L14.0781 18.7117L14.3784 17.7811C11.1019 15.8929 8.39094 14.3647 4.47444 14.894L4.41765 14.9016L4.36407 14.922C3.01128 15.4351 2.94909 15.4596 1.89394 16.0194H1.89252H1.8896H1.88667H1.88374H1.88081H1.87788H1.87496H1.87203H1.8691H1.86617H1.86325H1.86032H1.85739H1.85446H1.85153H1.8486H1.84568H1.84275H1.83982H1.83689H1.83396H1.83103H1.82811H1.82518H1.82225H1.81932H1.81639H1.81346H1.81053H1.80761H1.80468H1.80175H1.79882H1.79589H1.79296H1.79003H1.7871H1.78417H1.78124H1.77831H1.77539H1.77246H1.76953H1.7666H1.76367H1.76074H1.75781H1.75488H1.75195H1.74902H1.74609H1.74316H1.74023H1.7373H1.73437H1.73144H1.72851H1.72558H1.72265H1.71972H1.71679H1.71385H1.71092H1.70799H1.70506H1.70213H1.6992H1.69627H1.69334H1.69041H1.68748H1.68454H1.68161H1.67868H1.67575H1.67282H1.66989H1.66695H1.66402H1.66109H1.65816H1.65523H1.65229H1.64936H1.64643H1.6435H1.64056H1.63763H1.6347H1.63176H1.62883H1.6259H1.62296H1.62003H1.6171H1.61416H1.61123H1.6083H1.60536H1.60243H1.5995H1.59656H1.59363H1.59069H1.58776H1.58482H1.58189H1.57896H1.57602H1.57309H1.57015H1.56722H1.56428H1.56135H1.55841H1.55547H1.55254H1.5496H1.54667H1.54373H1.5408H1.53786H1.53492H1.53199H1.52905H1.52611H1.52318H1.52024H1.5173H1.51437H1.51143H1.50849H1.50556H1.50262H1.49968H1.49674H1.4938H1.49087H1.48793H1.48499H1.48205H1.47911H1.47617H1.47324H1.4703H1.46736H1.46442H1.46148H1.45854H1.4556H1.45266H1.44972H1.44678H1.44384H1.4409H1.43796H1.43502H1.43208H1.42914H1.4262H1.42326H1.42032H1.41738H1.41443H1.41149H1.40855H1.40561H1.40267H1.39973H1.39678H1.39384H1.3909H1.38796H1.38501H1.38207H1.37913H1.37618H1.37324H1.3703H1.36735H1.36441H1.36147H1.35852H1.35558H1.35263H1.34969H1.34674H1.3438H1.34085H1.33791H1.33496H1.33202H1.32907H1.32613H1.32318H1.32023H1.31729H1.31434H1.31139H1.30845H1.3055H1.30255H1.29961H1.29666H1.29371H1.29076H1.28782H1.28487H1.28192H1.27897H1.27602H1.27307H1.27012H1.26717H1.26423H1.26128H1.25833H1.25538H1.25243H1.24948H1.24653H1.24358H1.24062H1.23767H1.23472H1.23177H1.22882H1.22587H1.22292H1.21996H1.21701H1.21406H1.21111H1.20815H1.2052H1.20225H1.19929H1.19634H1.19339H1.19043H1.18748H1.18453H1.18157H1.17862H1.17566H1.17271H1.16975H1.1668H1.16384H1.16088H1.15793H1.15497H1.15202H1.14906H1.1461H1.14315H1.14019H1.13723H1.13427H1.13132H1.12836H1.1254H1.12244H1.11948H1.11652H1.11356H1.1106H1.10765H1.10469H1.10173H1.09877H1.09581H1.09284H1.08988H1.08692H1.08396H1.081H1.07804H1.07508H1.07211H1.06915H1.06619H1.06323H1.06026H1.0573H1.05434H1.05137H1.04841H1.04545H1.04248H1.03952H1.03655H1.03359H1.03062H1.02766H1.02469H1.02173H1.01876H1.01579H1.01283H1.00986H1.00689H1.0046V16.0175V16.0142V16.011V16.0077V16.0044V16.0011V15.9978V15.9945V15.9912V15.9879V15.9847V15.9814V15.9781V15.9748V15.9715V15.9682V15.9649V15.9616V15.9584V15.9551V15.9518V15.9485V15.9452V15.9419V15.9386V15.9353V15.932V15.9288V15.9255V15.9222V15.9189V15.9156V15.9123V15.909V15.9057V15.9024V15.8991V15.8959V15.8926V15.8893V15.886V15.8827V15.8794V15.8761V15.8728V15.8695V15.8662V15.8629V15.8596V15.8564V15.8531V15.8498V15.8465V15.8432V15.8399V15.8366V15.8333V15.83V15.8267V15.8234V15.8201V15.8168V15.8135V15.8102V15.8069V15.8036V15.8004V15.7971V15.7938V15.7905V15.7872V15.7839V15.7806V15.7773V15.774V15.7707V15.7674V15.7641V15.7608V15.7575V15.7542V15.7509V15.7476V15.7443V15.741V15.7377V15.7344V15.7311V15.7278V15.7245V15.7212V15.7179V15.7146V15.7113V15.708V15.7047V15.7014V15.6981V15.6948V15.6915V15.6882V15.6849V15.6816V15.6783V15.675V15.6717V15.6684V15.6651V15.6618V15.6585V15.6552V15.6519V15.6486V15.6453V15.642V15.6387V15.6354V15.6321V15.6288V15.6254V15.6221V15.6188V15.6155V15.6122V15.6089V15.6056V15.6023V15.599V15.5957V15.5924V15.5891V15.5858V15.5825V15.5792V15.5758V15.5725V15.5692V15.5659V15.5626V15.5593V15.556V15.5527V15.5494V15.5461V15.5427V15.5394V15.5361V15.5328V15.5295V15.5262V15.5229V15.5196V15.5163V15.5129V15.5096V15.5063V15.503V15.4997V15.4964V15.4931V15.4897V15.4864V15.4831V15.4798V15.4765V15.4732V15.4699V15.4665V15.4632V15.4599V15.4566V15.4533V15.45V15.4466V15.4433V15.44V15.4367V15.4334V15.43V15.4267V15.4234V15.4201V15.4168V15.4135V15.4101V15.4068V15.4035V15.4002V15.3968V15.3935V15.3902V15.3869V15.3836V15.3802V15.3769V15.3736V15.3703V15.3669V15.3636V15.3603V15.357V15.3536V15.3503V15.347V15.3437V15.3403V15.337V15.3337V15.3304V15.327V15.3237V15.3204V15.3171V15.3137V15.3104V15.3071V15.3037V15.3004V15.2971V15.2938V15.2904V15.2871V15.2838V15.2804V15.2771V15.2738V15.2704V15.2671V15.2638V15.2604V15.2571V15.2538V15.2505V15.2471V15.2438V15.2404V15.2371V15.2338V15.2304V15.2271V15.2238V15.2204V15.2171V15.2138V15.2104V15.2071V15.2038V15.2004V15.1971V15.1937V15.1904V15.1871V15.1837V15.1804V15.177V15.1737V15.1704V15.167V15.1637V15.1603V15.157V15.1537V15.1503V15.147V15.1436V15.1403V15.1369V15.1336V15.1303V15.1269V15.1236V15.1202V15.1169V15.1138C3.66885 13.6076 5.95348 13.1446 8.94981 13.6148C10.2467 14.1308 11.4922 14.7341 12.7728 15.3637L12.7865 15.3704L12.8006 15.3763C13.6448 15.7291 14.3605 15.8928 15.0959 15.8641C15.8236 15.8357 16.5279 15.6202 17.3449 15.2876L17.4077 15.262L17.4614 15.2207L18.9692 14.0601C19.7943 13.464 20.3677 13.1714 20.9449 13.0412C21.4913 12.918 22.0836 12.9303 22.9621 13.0371C23.1209 13.2191 23.172 13.2945 23.2218 13.4242C23.2971 13.6201 23.3574 13.9182 23.4927 14.626C23.1136 16.9971 21.8442 18.0172 20.0905 19.4267C19.8559 19.6153 19.6126 19.8109 19.3615 20.0176L19.3538 20.0239L19.3464 20.0305L18.2142 21.0412C16.9259 22.1294 15.9381 22.8066 14.901 23.1694C13.8815 23.5261 12.7682 23.5943 11.2064 23.3739C10.5524 23.1847 10.2506 23.0973 9.95734 22.9872C9.70016 22.8906 9.44954 22.7766 8.97369 22.5611L8.96493 22.5571L8.95602 22.5535C7.09114 21.7939 5.54486 21.3964 3.46613 21.6735L3.33728 21.6906L3.23311 21.7684L1.89613 22.7663C1.48266 22.6866 1.26887 22.6428 1.07301 22.588C0.999265 22.5674 0.927718 22.545 0.848389 22.518C1.22197 22.0881 1.52387 21.7469 1.78653 21.4717C2.15082 21.0899 2.41677 20.8597 2.66418 20.7077C3.14148 20.4143 3.61058 20.3651 4.84311 20.2681C6.42755 20.2806 7.65094 20.6139 9.17306 21.253L9.17459 21.2536C10.298 21.7209 11.2441 21.9481 12.2139 21.9724C13.1769 21.9966 14.1321 21.8196 15.2647 21.5228L15.2538 20.5527Z" fill="#B3B7C9" stroke="#B3B7C9"/>
<path d="M16.6772 8.46891L16.5743 8.8145L16.8697 9.02124L17.8451 9.70381L18.6748 10.5166V10.5206V10.525V10.5294V10.5337V10.5381V10.5425V10.5468V10.5512V10.5556V10.56V10.5643V10.5687V10.5731V10.5774V10.5818V10.5862V10.5906V10.5949V10.5993V10.6037V10.608V10.6124V10.6168V10.6212V10.6255V10.6299V10.6343V10.6386V10.643V10.6474V10.6518V10.6561V10.6605V10.6649V10.6693V10.6736V10.678V10.6824V10.6868V10.6911V10.6955V10.6999V10.7042V10.7086V10.713V10.7174V10.7217V10.7261V10.7305V10.7349V10.7392V10.7436V10.748V10.7524V10.7567V10.7611V10.7655V10.7699V10.7742V10.7786V10.783V10.7874V10.7917V10.7961V10.8005V10.8049V10.8092V10.8136V10.818V10.8224V10.8268V10.8311V10.8355V10.8399V10.8443V10.8486V10.853V10.8574V10.8618V10.8661V10.8705V10.8749V10.8793V10.8837V10.888V10.8924V10.8968V10.9012V10.9056V10.9099V10.9143V10.9187V10.9231V10.9275V10.9318V10.9362V10.9406V10.945V10.9494V10.9537V10.9581V10.9625V10.9669V10.9713V10.9756V10.98V10.9844V10.9888V10.9932V10.9976V11.0019V11.0063V11.0107V11.0151V11.0195V11.0238V11.0282V11.0326V11.037V11.0414V11.0458V11.0502V11.0545V11.0589V11.0633V11.0677V11.0721V11.0765V11.0808V11.0852V11.0896V11.094V11.0984V11.1028V11.1072V11.1115V11.1159V11.1203V11.1247V11.1291V11.1335V11.1379V11.1423V11.1466V11.151V11.1554V11.1598V11.1642V11.1686V11.173V11.1774V11.1818V11.1862V11.1905V11.1949V11.1993V11.2037V11.2081V11.2125V11.2169V11.2213V11.2257V11.2301V11.2345V11.2388V11.2432V11.2476V11.252V11.2564V11.2608V11.2652V11.2696V11.274V11.2784V11.2828V11.2872V11.2916V11.296V11.3004V11.3048V11.3092V11.3136V11.3179V11.3223V11.3267V11.3311V11.3355V11.3399V11.3443V11.3487V11.3531V11.3575V11.3619V11.3663V11.3707V11.3751V11.3795V11.3839V11.3883V11.3927V11.3971V11.4015V11.4059V11.4103V11.4147V11.4191V11.4235V11.4279V11.4323V11.4367V11.4411V11.4456V11.45V11.4544V11.4588V11.4632V11.4676V11.472V11.4764V11.4808V11.4852V11.4896V11.494V11.4984V11.5028V11.5072V11.5116V11.516V11.5205V11.5249V11.5293V11.5337V11.5381V11.5425V11.5469V11.5513V11.5557V11.5601V11.5646V11.569V11.5734V11.5778V11.5822V11.5866V11.591V11.5954V11.5999V11.6043V11.6087V11.6131V11.6175V11.6219V11.6263V11.6308V11.6348L17.9825 11.0535L16.1215 9.49077C15.9751 7.78333 16.149 6.35691 16.4508 4.6002L16.4528 4.58815L16.4543 4.57601L16.6435 3.02235L16.6709 2.79766L16.5201 2.62884L15.5109 1.4989L15.3618 1.33197H15.138H15.1341H15.1302H15.1263H15.1224H15.1185H15.1146H15.1107H15.1068H15.1029H15.099H15.0951H15.0912H15.0873H15.0834H15.0795H15.0755H15.0716H15.0677H15.0638H15.0599H15.056H15.0521H15.0482H15.0443H15.0404H15.0365H15.0326H15.0287H15.0248H15.0209H15.017H15.0131H15.0092H15.0053H15.0014H14.9975H14.9936H14.9897H14.9858H14.9819H14.978H14.9741H14.9702H14.9663H14.9624H14.9585H14.9545H14.9506H14.9467H14.9428H14.9389H14.935H14.9311H14.9272H14.9233H14.9194H14.9155H14.9116H14.9077H14.9038H14.8999H14.896H14.8921H14.8882H14.8843H14.8804H14.8765H14.8726H14.8687H14.8647H14.8608H14.8569H14.853H14.8491H14.8452H14.8413H14.8374H14.8335H14.8296H14.8257H14.8218H14.8179H14.814H14.8101H14.8062H14.8023H14.7984H14.7944H14.7905H14.7866H14.7827H14.7788H14.7749H14.771H14.7671H14.7632H14.7593H14.7554H14.7515H14.7476H14.7437H14.7398H14.7358H14.7319H14.728H14.7241H14.7202H14.7163H14.7124H14.7085H14.7046H14.7007H14.6968H14.6929H14.6889H14.685H14.6811H14.6772H14.6733H14.6694H14.6655H14.6616H14.6577H14.6538H14.6499H14.6459H14.642H14.6381H14.6342H14.6303H14.6264H14.6225H14.6186H14.6147H14.6108H14.6068H14.6029H14.599H14.5951H14.5912H14.5873H14.5834H14.5795H14.5755H14.5716H14.5677H14.5638H14.5599H14.556H14.5521H14.5482H14.5442H14.5403H14.5364H14.5325H14.5286H14.5247H14.5208H14.5169H14.5129H14.509H14.5051H14.5012H14.4973H14.4934H14.4894H14.4855H14.4816H14.4777H14.4738H14.4699H14.466H14.462H14.4581H14.4542H14.4503H14.4464H14.4425H14.4385H14.4346H14.4307H14.4268H14.4229H14.4189H14.415H14.4111H14.4072H14.4033H14.3994H14.3954H14.3915H14.3876H14.3837H14.3798H14.3758H14.3719H14.368H14.3641H14.3602H14.3562H14.3523H14.3484H14.3445H14.3406H14.3366H14.3327H14.3288H14.3249H14.3209H14.317H14.3131H14.3092H14.3053H14.3013H14.2974H14.2935H14.2896H14.2856H14.2817H14.2778H14.2739H14.2699H14.266H14.2621H14.2582H14.2542H14.2503H14.2464H14.2425H14.2385H14.2346H14.2307H14.2267H14.2228H14.2189H14.215H14.211H14.2071H14.2032H14.1993H14.1953H14.1914H14.1875H14.1835H14.1796H14.1757H14.1717H14.1678H14.1639H14.16H14.156H14.1521H14.1482H14.1442H14.1403H14.1364H14.1324H14.1285H14.1246H14.1206H14.1167H14.1128H14.1088H14.1049H14.101H14.097H14.0931H14.0892H14.0852H14.0813H14.0774H14.0734H14.0695H14.0655H14.0616H14.0577H14.0537H14.0498H14.0459H14.0419H14.038H14.034H14.0301H14.0262H14.0222H14.0183H14.0143H14.0104H14.0065H14.0025H13.9986H13.9946H13.9907H13.9868H13.9828H13.9789H13.9749H13.971H13.967H13.9631H13.9592H13.9552H13.9513H13.9473H13.9434H13.9394H13.9355H13.9316H13.9276H13.9237H13.9197H13.9158H13.9118H13.9079H13.9039H13.9H13.896H13.8921H13.8881H13.8842H13.8802H13.8763H13.8723H13.8684H13.8644H13.8605H13.8565H13.8526H13.8486H13.8447H13.8407H13.8368H13.8328H13.8289H13.8249H13.821H13.817H13.8131H13.8091H13.8051H13.8012H13.7972H13.7933H13.7893H13.7854H13.7814H13.7775H13.7735H13.7695H13.7656H13.7616H13.7577H13.7537H13.7497H13.7458H13.7418H13.7379H13.7339H13.7299H13.726H13.722H13.7181H13.7141H13.7101H13.7062H13.7022H13.6982H13.6943H13.6903H13.6864H13.6824H13.6784H13.6745H13.6705H13.6665H13.6626H13.6586H13.6546H13.6507H13.6467H13.6427H13.6388H13.6348H13.6308H13.6269H13.6229H13.6189H13.6149H13.611H13.607H13.603H13.5991H13.5951H13.5911H13.5871H13.5832H13.5792H13.5752H13.5712H13.5673H13.5633H13.5593H13.5553H13.5514H13.5474H13.5434H13.5394H13.5355H13.5315H13.5275H13.5235H13.5195H13.5156H13.5116H13.5076H13.5036H13.4996H13.4957H13.4917H13.4877H13.4837H13.4797H13.4757H13.4718H13.4678H13.4638H13.4598H13.4558H13.4518H13.4479H13.4439H13.4399H13.4359H13.4319H13.4279H13.4239H13.4199H13.4159H13.412H13.408H13.404H13.4H13.396H13.392H13.388H13.384H13.38H13.376H13.372H13.368H13.3641H13.3601H13.3561H13.3521H13.3481H13.3441H13.3401H13.3361H13.3321H13.3281H13.3241H13.3201H13.3161H13.3121H13.3081H13.3041H13.3001H13.2961H13.2921H13.2881H13.2841H13.2801H13.2761H13.2721H13.2681H13.2641H13.2601H13.2561H13.252H13.248H13.244H13.24H13.236H13.232H13.228H13.224H13.22H13.216H13.212H13.2079H13.2039H13.1999H13.1959H13.1919H13.1879H13.1839H13.1799H13.1758H13.1718H13.1678H13.1638H13.1598H13.1558H13.1518H13.1477H13.1437H13.1397H13.1357H13.1317H13.1276H13.1236H13.1196H12.8958L12.7467 1.4989L12.2421 2.06387L12.099 2.22401L12.1167 2.43801C12.2705 4.30409 12.4768 6.15751 12.6875 8.00778L12.6287 9.50084L10.7797 11.0535L10.2925 11.4626L10.5495 10.024L11.9049 9.01226L12.1846 8.80346L12.085 8.46891L11.8408 7.64851C11.4299 5.34331 11.1343 3.011 12.052 1.05759C12.6431 0.722926 13.1404 0.572983 13.6453 0.521651C14.1833 0.466966 14.7517 0.52108 15.4989 0.622109C16.0687 0.891112 16.2882 1.00105 16.4722 1.15556C16.6529 1.30735 16.8084 1.50964 17.1722 2.00978C17.3297 4.31447 17.319 6.3131 16.6772 8.46891ZM18.6748 12.0651V12.0663H18.6742H18.6557H18.6372H18.6186H18.6001H18.5815H18.563H18.5445H18.5259H18.5074H18.4888H18.4703H18.4518H18.4332H18.4147H18.3961H18.3776H18.3591H18.3405H18.322H18.3034H18.2849H18.2663H18.2478H18.2292H18.2107H18.1922H18.1736H18.1551H18.1365H18.118H18.0994H18.0809H18.0623H18.0438H18.0253H18.0067H17.9882H17.9696H17.9511H17.9325H17.914H17.8954H17.8769H17.8583H17.8398H17.8212H17.8027H17.7841H17.7656H17.747H17.7285H17.7099H17.6914H17.6728H17.6543H17.6357H17.6172H17.5986H17.5801H17.5615H17.5429H17.5244H17.5058H17.4873H17.4687H17.4502H17.4316H17.4131H17.3945H17.3759H17.3574H17.3388H17.3203H17.3017H17.2831H17.2646H17.246H17.2275H17.2089H17.1903H17.1718H17.1532H17.1346H17.1161H17.0975H17.079H17.0604H17.0418H17.0233H17.0047H16.9861H16.9675H16.949H16.9304H16.9118H16.8933H16.8747H16.8561H16.8376H16.819H16.8004H16.7818H16.7633H16.7447H16.7261H16.7075H16.689H16.6704H16.6518H16.6332H16.6147H16.5961H16.5775H16.5589H16.5403H16.5217H16.5032H16.4846H16.466H16.4474H16.4288H16.4102H16.3917H16.3731H16.3545H16.3359H16.3173H16.2987H16.2801H16.2615H16.2429H16.2244H16.2058H16.1872H16.1686H16.15H16.1314H16.1128H16.0942H16.0756H16.057H16.0384H16.0198H16.0012H15.9826H15.964H15.9454H15.9268H15.9082H15.8896H15.871H15.8524H15.8338H15.8152H15.7965H15.7779H15.7593H15.7407H15.7221H15.7035H15.6849H15.6663H15.6476H15.629H15.6104H15.5918H15.5732H15.5546H15.5359H15.5173H15.4987H15.4801H15.4615H15.4428H15.4242H15.4056H15.3869H15.3683H15.3497H15.3311H15.3124H15.2938H15.2752H15.2565H15.2379H15.2193H15.2006H15.182H15.1634H15.1447H15.1261H15.1074H15.0888H15.0702H15.0515H15.0329H15.0142H14.9956H14.9769H14.9583H14.9396H14.921H14.9023H14.8837H14.865H14.8464H14.8277H14.8091H14.7904H14.7717H14.7531H14.7344H14.7158H14.6971H14.6784H14.6598H14.6411H14.6224H14.6038H14.5851H14.5664H14.5478H14.5291H14.5104H14.4918H14.4731H14.4544H14.4357H14.417H14.3984H14.3797H14.361H14.3423H14.3236H14.305H14.2863H14.2676H14.2489H14.2302H14.2115H14.1928H14.1741H14.1554H14.1367H14.118H14.0994H14.0807H14.062H14.0433H14.0245H14.0058H13.9871H13.9684H13.9497H13.931H13.9123H13.8936H13.8749H13.8562H13.8375H13.8187H13.8H13.7813H13.7626H13.7439H13.7252H13.7064H13.6877H13.669H13.6503H13.6315H13.6128H13.5941H13.5753H13.5566H13.5379H13.5191H13.5004H13.4817H13.4629H13.4442H13.4254H13.4067H13.3879H13.3692H13.3505H13.3317H13.313H13.2942H13.2755H13.2567H13.2379H13.2192H13.2004H13.1817H13.1629H13.1441H13.1254H13.1066H13.0878H13.0691H13.0503H13.0315H13.0128H12.994H12.9752H12.9564H12.9377H12.9189H12.9001H12.8813H12.8625H12.8438H12.825H12.8062H12.7874H12.7686H12.7498H12.731H12.7122H12.6934H12.6746H12.6558H12.637H12.6182H12.5994H12.5806H12.5618H12.543H12.5242H12.5054H12.4866H12.4677H12.4489H12.4301H12.4113H12.3925H12.3736H12.3548H12.336H12.3172H12.2983H12.2795H12.2607H12.2418H12.223H12.2042H12.1853H12.1665H12.1476H12.1288H12.11H12.0911H12.0723H12.0534H12.0346H12.0157H11.9969H11.978H11.9591H11.9403H11.9214H11.9026H11.8837H11.8648H11.846H11.8271H11.8082H11.7893H11.7705H11.7516H11.7327H11.7138H11.6949H11.6761H11.6572H11.6383H11.6194H11.6005H11.5816H11.5627H11.5438H11.5249H11.506H11.4871H11.4682H11.4493H11.4304H11.4115H11.3926H11.3737H11.3548H11.3359H11.3169H11.298H11.2791H11.2602H11.2413H11.2223H11.2034H11.1845H11.1655H11.1466H11.1277H11.1087H11.0898H11.0709H11.0519H11.033H11.014H10.9951H10.9761H10.9572H10.9382H10.9193H10.9003H10.8813H10.8624H10.8434H10.8245H10.8055H10.7865H10.7675H10.7486H10.7296H10.7106H10.6916H10.6727H10.6537H10.6347H10.6157H10.5967H10.5777H10.5587H10.5397H10.5207H10.5017H10.4827H10.4637H10.4447H10.4257H10.4067H10.3877H10.3687H10.3497H10.3307H10.3117H10.2926H10.2736H10.2546H10.2356H10.2165H10.1975H10.1846L10.2078 11.9364H11.1012H11.1139H11.1266H11.1393H11.1519H11.1646H11.1773H11.19H11.2027H11.2154H11.228H11.2407H11.2534H11.2661H11.2788H11.2915H11.3041H11.3168H11.3295H11.3422H11.3549H11.3676H11.3803H11.3929H11.4056H11.4183H11.431H11.4437H11.4564H11.469H11.4817H11.4944H11.5071H11.5198H11.5325H11.5452H11.5578H11.5705H11.5832H11.5959H11.6086H11.6213H11.634H11.6466H11.6593H11.672H11.6847H11.6974H11.7101H11.7228H11.7355H11.7481H11.7608H11.7735H11.7862H11.7989H11.8116H11.8243H11.837H11.8497H11.8623H11.875H11.8877H11.9004H11.9131H11.9258H11.9385H11.9512H11.9639H11.9766H11.9892H12.0019H12.0146H12.0273H12.04H12.0527H12.0654H12.0781H12.0908H12.1035H12.1162H12.1289H12.1416H12.1542H12.1669H12.1796H12.1923H12.205H12.2177H12.2304H12.2431H12.2558H12.2685H12.2812H12.2939H12.3066H12.3193H12.332H12.3447H12.3574H12.3701H12.3828H12.3955H12.4082H12.4209H12.4336H12.4463H12.459H12.4717H12.4844H12.4971H12.5098H12.5225H12.5352H12.5479H12.5606H12.5733H12.586H12.5987H12.6114H12.6241H12.6368H12.6495H12.6622H12.6749H12.6877H12.7004H12.7131H12.7258H12.7385H12.7512H12.7639H12.7766H12.7893H12.802H12.8147H12.8274H12.8402H12.8529H12.8656H12.8783H12.891H12.9037H12.9164H12.9292H12.9419H12.9546H12.9673H12.98H12.9927H13.0054H13.0182H13.0309H13.0436H13.0563H13.069H13.0818H13.0945H13.1072H13.1199H13.1326H13.1454H13.1581H13.1708H13.1835H13.1963H13.209H13.2217H13.2344H13.2472H13.2599H13.2726H13.2853H13.2981H13.3108H13.3235H13.3362H13.349H13.3617H13.3744H13.3872H13.3999H13.4126H13.4254H13.4381H13.4508H13.4636H13.4763H13.489H13.5018H13.5145H13.5272H13.54H13.5527H13.5655H13.5782H13.5909H13.6037H13.6164H13.6292H13.6419H13.6546H13.6674H13.6801H13.6929H13.7056H13.7184H13.7311H13.7439H13.7566H13.7694H13.7821H13.7949H13.8076H13.8204H13.8331H13.8459H13.8586H13.8714H13.8841H13.8969H13.9096H13.9224H13.9351H13.9479H13.9607H13.9734H13.9862H13.9989H14.0117H14.0245H14.0372H14.05H14.0627H14.0755H14.0883H14.101H14.1138H14.1266H14.1393H14.1521H14.1649H14.1776H14.1904H14.2032H14.216H14.2287H14.2415H14.2543H14.2671H14.2798H14.2926H14.3054H14.3182H14.3309H14.3437H14.3565H14.3693H14.3821H14.3948H14.4076H14.4204H14.4332H14.446H14.4588H14.4715H14.4843H14.4971H14.5099H14.5227H14.5355H14.5483H14.5611H14.5739H14.5867H14.5995H14.6123H14.625H14.6378H14.6506H14.6634H14.6762H14.689H14.7018H14.7146H14.7274H14.7402H14.7531H14.7659H14.7787H14.7915H14.8043H14.8171H14.8299H14.8427H14.8555H14.8683H14.8811H14.894H14.9068H14.9196H14.9324H14.9452H14.958H14.9709H14.9837H14.9965H15.0093H15.0221H15.035H15.0478H15.0606H15.0734H15.0863H15.0991H15.1119H15.1248H15.1376H15.1504H15.1633H15.1761H15.1889H15.2018H15.2146H15.2274H15.2403H15.2531H15.2659H15.2788H15.2916H15.3045H15.3173H15.3302H15.343H15.3559H15.3687H15.3816H15.3944H15.4073H15.4201H15.433H15.4458H15.4587H15.4715H15.4844H15.4972H15.5101H15.523H15.5358H15.5487H15.5615H15.5744H15.5873H15.6001H15.613H15.6259H15.6387H15.6516H15.6645H15.6774H15.6902H15.7031H15.716H15.7289H15.7417H15.7546H15.7675H15.7804H15.7933H15.8061H15.819H15.8319H15.8448H15.8577H15.8706H15.8835H15.8964H15.9092H15.9221H15.935H15.9479H15.9608H15.9737H15.9866H15.9995H16.0124H16.0253H16.0382H16.0511H16.064H16.0769H16.0898H16.1028H16.1157H16.1286H16.1415H16.1544H16.1673H16.1802H16.1931H16.2061H16.219H16.2319H16.2448H16.2578H16.2707H16.2836H16.2965H16.3095H16.3224H16.3353H16.3482H16.3612H16.3741H16.387H16.4H16.4129H16.4259H16.4388H16.4517H16.4647H16.4776H16.4906H16.5035H16.5165H16.5294H16.5424H16.5553H16.5683H16.5812H16.5942H16.6071H16.6201H16.633H16.646H16.659H16.6719H16.6849H16.6978H16.7108H16.7238H16.7367H16.7497H16.7627H16.7757H16.7886H16.8016H16.8146H16.8276H16.8405H16.8535H16.8665H16.8795H16.8925H16.9055H16.9184H16.9314H16.9444H16.9574H16.9704H16.9834H16.9964H17.0094H17.0224H17.0354H17.0484H17.0614H17.0744H17.0874H17.1004H17.1134H17.1264H17.1394H17.1524H17.1655H17.1785H17.1915H17.2045H17.2175H17.2305H17.2436H17.2566H17.2696H17.2826H17.2957H17.3087H17.3217H17.3347H17.3478H17.3608H17.3738H17.3869H17.3999H17.413H17.426H17.439H17.4521H17.4651H17.4782H17.4912H17.5043H17.5173H17.5304H17.5434H17.5565H17.5695H17.5826H17.5957H17.6087H17.6218H17.6349H17.6479H17.661H18.6748V11.9407V11.9451V11.9495V11.954V11.9584V11.9629V11.9673V11.9718V11.9762V11.9806V11.9851V11.9895V11.994V11.9984V12.0029V12.0073V12.0117V12.0162V12.0206V12.0251V12.0295V12.034V12.0384V12.0429V12.0473V12.0518V12.0562V12.0607V12.0651Z" fill="#B3B7C9" stroke="#B3B7C9"/>
</svg>
