<svg width="26" height="26" viewBox="0 0 26 26" fill="none" xmlns="http://www.w3.org/2000/svg">
<path d="M13 17.5L17.5 13M17.5 13L13 8.5M17.5 13H1M8.5 5.87288V5.80029C8.5 4.12013 8.5 3.27943 8.82698 2.6377C9.1146 2.07321 9.57321 1.6146 10.1377 1.32698C10.7794 1 11.6201 1 13.3003 1H20.2003C21.8805 1 22.7194 1 23.3611 1.32698C23.9256 1.6146 24.3857 2.07321 24.6733 2.6377C25 3.2788 25 4.11849 25 5.79537V20.2054C25 21.8822 25 22.7207 24.6733 23.3618C24.3857 23.9263 23.9256 24.3857 23.3611 24.6733C22.72 25 21.8815 25 20.2046 25H13.2954C11.6185 25 10.7788 25 10.1377 24.6733C9.57321 24.3857 9.1146 23.9259 8.82698 23.3614C8.5 22.7197 8.5 21.8802 8.5 20.2V20.125" stroke="#B3B7C9" stroke-width="1.5" stroke-linecap="round" stroke-linejoin="round"/>
</svg>
