<svg width="26" height="26" viewBox="0 0 26 26" fill="none" xmlns="http://www.w3.org/2000/svg">
<path d="M1 1C7.98823 1 14.9765 1 22.1765 1C22.1765 6.81295 22.1765 12.6259 22.1765 18.615C15.1882 18.615 8.2 18.615 1 18.615C1 12.802 1 6.9891 1 1ZM2.41176 2.42824C2.34103 3.51346 2.31943 4.60016 2.31801 5.68642C2.31734 6.0122 2.31666 6.33798 2.31597 6.67362C2.31549 7.36359 2.31679 8.05356 2.31974 8.74352C2.32351 9.80303 2.31978 10.8625 2.31526 11.922C2.31572 12.5908 2.31663 13.2597 2.31801 13.9286C2.31881 14.5413 2.31961 15.1541 2.32043 15.7855C2.17398 17.1336 2.17398 17.1336 3.11765 17.6628C4.36606 17.7102 5.61726 17.7251 6.86765 17.7261C7.62653 17.7267 8.3854 17.7273 9.16728 17.7279C9.96619 17.7261 10.7651 17.7242 11.5882 17.7223C12.3871 17.7242 13.1861 17.726 14.0092 17.7279C14.7681 17.7273 15.5269 17.7267 16.3088 17.7261C17.0104 17.7255 17.7119 17.725 18.4347 17.7244C20.0332 17.7858 20.0332 17.7858 20.7647 17.1867C20.8354 16.1015 20.857 15.0148 20.8585 13.9286C20.8591 13.6028 20.8598 13.277 20.8605 12.9414C20.861 12.2514 20.8597 11.5614 20.8567 10.8715C20.853 9.81196 20.8567 8.75254 20.8612 7.69303C20.8607 7.02416 20.8598 6.35529 20.8585 5.68642C20.8577 5.07364 20.8569 4.46087 20.856 3.82952C21.0025 2.48144 21.0025 2.48144 20.0588 1.95216C18.8104 1.90481 17.5592 1.88989 16.3088 1.88893C15.5499 1.88832 14.7911 1.8877 14.0092 1.88707C13.2103 1.88891 12.4114 1.89075 11.5882 1.89265C10.7893 1.89081 9.9904 1.88897 9.16728 1.88707C8.4084 1.88769 7.64952 1.8883 6.86765 1.88893C6.16609 1.88947 5.46454 1.89001 4.74173 1.89056C3.14323 1.82917 3.14323 1.82917 2.41176 2.42824Z" fill="#424246" stroke="#424246" stroke-width="0.5"/>
<path d="M3.82356 19.0918C4.52238 19.0918 5.22121 19.0918 5.94121 19.0918C5.94121 20.5058 5.94121 21.9197 5.94121 23.3765C7.80473 23.5336 9.66826 23.6907 11.5883 23.8526C11.5883 22.2815 11.5883 20.7105 11.5883 19.0918C12.753 19.0918 13.9177 19.0918 15.1177 19.0918C15.3506 20.5058 15.5836 21.9197 15.8236 23.3765C16.8806 22.6636 16.7638 21.9539 16.9265 20.9664C17.0284 20.3478 17.1303 19.7291 17.2353 19.0918C17.9341 19.0918 18.633 19.0918 19.353 19.0918C19.3912 19.776 19.4185 20.4604 19.4412 21.1449C19.4576 21.526 19.474 21.9071 19.4908 22.2998C19.353 23.3765 19.353 23.3765 17.9412 24.8048C16.637 24.9896 16.637 24.9896 15.0736 24.9945C14.2301 24.9972 14.2301 24.9972 13.3695 25C12.7817 24.9945 12.1939 24.989 11.5883 24.9833C11.0005 24.9888 10.4126 24.9943 9.80701 25C9.24468 24.9982 8.68234 24.9964 8.10297 24.9945C7.58704 24.9928 7.07111 24.9912 6.53955 24.9896C5.23532 24.8048 5.23532 24.8048 3.82356 23.3765C3.68569 22.2998 3.68569 22.2998 3.73532 21.1449C3.74806 20.7601 3.7608 20.3753 3.77393 19.9789C3.7903 19.6861 3.80668 19.3934 3.82356 19.0918Z" fill="#424246" stroke="#424246" stroke-width="0.5"/>
<path d="M3.82373 2.90503C8.94844 2.90503 14.0731 2.90503 19.3531 2.90503C19.3531 4.6332 19.3531 6.36138 19.3531 8.14192C14.2284 8.14192 9.10373 8.14192 3.82373 8.14192C3.82373 6.41374 3.82373 4.68557 3.82373 2.90503ZM5.2355 4.33327C5.11785 5.52347 5.11785 5.52347 5.2355 6.71368C6.52102 7.5807 8.27553 7.25277 9.98366 7.25485C10.5132 7.253 11.0428 7.25116 11.5884 7.24927C12.3828 7.25203 12.3828 7.25203 13.1932 7.25485C15.7786 7.41673 15.7786 7.41673 17.9414 6.71368C18.059 5.52347 18.059 5.52347 17.9414 4.33327C16.6559 3.46625 14.9013 3.79418 13.1932 3.7921C12.3988 3.79486 12.3988 3.79486 11.5884 3.79768C11.0589 3.79584 10.5293 3.794 9.98366 3.7921C7.39828 3.63022 7.39828 3.63022 5.2355 4.33327Z" fill="#424246" stroke="#424246" stroke-width="0.5"/>
<path d="M23.5884 7.66553C24.0543 7.66553 24.5201 7.66553 25.0001 7.66553C25.0001 11.1219 25.0001 14.5782 25.0001 18.1393C24.5343 18.1393 24.0684 18.1393 23.5884 18.1393C23.5884 14.683 23.5884 11.2266 23.5884 7.66553Z" fill="#424246" stroke="#424246" stroke-width="0.5"/>
<path d="M15.1177 14.8064C16.5153 14.8064 17.913 14.8064 19.353 14.8064C19.353 15.4348 19.353 16.0632 19.353 16.7107C17.9553 16.7107 16.5577 16.7107 15.1177 16.7107C15.1177 16.0823 15.1177 15.4539 15.1177 14.8064Z" fill="#424246" stroke="#424246" stroke-width="0.5"/>
<path d="M9.4707 14.8064C10.8684 14.8064 12.266 14.8064 13.706 14.8064C13.706 15.4348 13.706 16.0632 13.706 16.7107C12.3084 16.7107 10.9107 16.7107 9.4707 16.7107C9.4707 16.0823 9.4707 15.4539 9.4707 14.8064Z" fill="#424246" stroke="#424246" stroke-width="0.5"/>
<path d="M3.82373 14.8064C5.22138 14.8064 6.61902 14.8064 8.05902 14.8064C8.05902 15.4348 8.05902 16.0632 8.05902 16.7107C6.66138 16.7107 5.26373 16.7107 3.82373 16.7107C3.82373 16.0823 3.82373 15.4539 3.82373 14.8064Z" fill="#424246" stroke="#424246" stroke-width="0.5"/>
<path d="M15.1177 11.949C16.5153 11.949 17.913 11.949 19.353 11.949C19.353 12.5774 19.353 13.2058 19.353 13.8533C17.9553 13.8533 16.5577 13.8533 15.1177 13.8533C15.1177 13.2249 15.1177 12.5964 15.1177 11.949Z" fill="#424246" stroke="#424246" stroke-width="0.5"/>
<path d="M9.4707 11.949C10.8684 11.949 12.266 11.949 13.706 11.949C13.706 12.5774 13.706 13.2058 13.706 13.8533C12.3084 13.8533 10.9107 13.8533 9.4707 13.8533C9.4707 13.2249 9.4707 12.5964 9.4707 11.949Z" fill="#424246" stroke="#424246" stroke-width="0.5"/>
<path d="M3.82373 11.949C5.22138 11.949 6.61902 11.949 8.05902 11.949C8.05902 12.5774 8.05902 13.2058 8.05902 13.8533C6.66138 13.8533 5.26373 13.8533 3.82373 13.8533C3.82373 13.2249 3.82373 12.5964 3.82373 11.949Z" fill="#424246" stroke="#424246" stroke-width="0.5"/>
<path d="M15.1177 9.09326C16.5153 9.09326 17.913 9.09326 19.353 9.09326C19.353 9.72169 19.353 10.3501 19.353 10.9976C17.9553 10.9976 16.5577 10.9976 15.1177 10.9976C15.1177 10.3692 15.1177 9.74073 15.1177 9.09326Z" fill="#424246" stroke="#424246" stroke-width="0.5"/>
<path d="M9.4707 9.09326C10.8684 9.09326 12.266 9.09326 13.706 9.09326C13.706 9.72169 13.706 10.3501 13.706 10.9976C12.3084 10.9976 10.9107 10.9976 9.4707 10.9976C9.4707 10.3692 9.4707 9.74073 9.4707 9.09326Z" fill="#424246" stroke="#424246" stroke-width="0.5"/>
<path d="M3.82373 9.09326C5.22138 9.09326 6.61902 9.09326 8.05902 9.09326C8.05902 9.72169 8.05902 10.3501 8.05902 10.9976C6.66138 10.9976 5.26373 10.9976 3.82373 10.9976C3.82373 10.3692 3.82373 9.74073 3.82373 9.09326Z" fill="#424246" stroke="#424246" stroke-width="0.5"/>
</svg>
