<svg width="26" height="26" viewBox="0 0 26 26" fill="none" xmlns="http://www.w3.org/2000/svg">
<path d="M1 1C8.92 1 16.84 1 25 1C24.604 8.92 24.208 16.84 23.8 25C16.672 25 9.544 25 2.2 25C1.804 17.08 1.408 9.16 1 1ZM3.4 3.66667C3.4 4.54667 3.4 5.42667 3.4 6.33333C9.736 6.33333 16.072 6.33333 22.6 6.33333C22.6 5.45333 22.6 4.57333 22.6 3.66667C16.264 3.66667 9.928 3.66667 3.4 3.66667ZM4.6 9C4.6 13.4 4.6 17.8 4.6 22.3333C10.144 22.3333 15.688 22.3333 21.4 22.3333C21.4 17.9333 21.4 13.5333 21.4 9C15.856 9 10.312 9 4.6 9Z" stroke="#424246" stroke-width="1.5"/>
<path d="M14.2002 17C15.7842 17 17.3682 17 19.0002 17C19.0002 17.88 19.0002 18.76 19.0002 19.6667C17.4162 19.6667 15.8322 19.6667 14.2002 19.6667C14.2002 18.7867 14.2002 17.9067 14.2002 17Z" stroke="#424246" stroke-width="1.5"/>
</svg>
