<svg width="26" height="26" viewBox="0 0 26 26" fill="none" xmlns="http://www.w3.org/2000/svg">
<path d="M1 1C2.46667 1 3.93333 1 5.44444 1C6.03111 2.90081 6.61778 4.80162 7.22222 6.76003C13.0889 6.76003 18.9556 6.76003 25 6.76003C24.1111 15.4001 24.1111 15.4001 22.3333 19.2401C17.64 19.2401 12.9467 19.2401 8.11111 19.2401C5.11111 11.6801 5.11111 11.6801 4.38889 7.30003C4.24795 6.46966 4.10701 5.6393 3.96181 4.78377C3.81571 3.86121 3.81571 3.86121 3.66667 2.92001C2.78667 2.92001 1.90667 2.92001 1 2.92001C1 2.28641 1 1.6528 1 1ZM11.6667 11.56C11.6667 12.1937 11.6667 12.8273 11.6667 13.4801C14.0133 13.7969 16.36 14.1137 18.7778 14.4401C18.7778 13.1729 18.7778 11.9057 18.7778 10.6C16.4153 10.6 14.0007 11.1934 11.6667 11.56Z" stroke="#B3B7C9"/>
<path d="M17.8887 21.1599C19.062 21.1599 20.2353 21.1599 21.4442 21.1599C21.4442 22.4271 21.4442 23.6943 21.4442 24.9999C20.2709 24.9999 19.0976 24.9999 17.8887 24.9999C17.8887 23.7327 17.8887 22.4655 17.8887 21.1599Z" stroke="#B3B7C9"/>
<path d="M9 21.1599C10.1733 21.1599 11.3467 21.1599 12.5556 21.1599C12.5556 22.4271 12.5556 23.6943 12.5556 24.9999C11.3822 24.9999 10.2089 24.9999 9 24.9999C9 23.7327 9 22.4655 9 21.1599Z" stroke="#B3B7C9"/>
</svg>
