<svg width="26" height="26" viewBox="0 0 26 26" fill="none" xmlns="http://www.w3.org/2000/svg">
<path opacity="0.943" fill-rule="evenodd" clip-rule="evenodd" d="M1.51562 1C6.29688 1 11.0781 1 15.8594 1C16.0888 1.08081 16.2528 1.23706 16.3516 1.46875C16.4154 1.74563 16.4388 2.02688 16.4219 2.3125C17.4141 2.16413 17.8516 2.586 17.7344 3.57812C18.0004 3.57034 18.2661 3.57815 18.5312 3.60156C18.7578 3.70313 18.9219 3.86719 19.0234 4.09375C19.0469 4.82796 19.0547 5.56233 19.0469 6.29688C21.7151 6.3655 23.5823 7.61552 24.6484 10.0469C24.7963 10.4825 24.9135 10.92 25 11.3594C25 11.8594 25 12.3594 25 12.8594C24.8337 14.0203 24.3728 15.0515 23.6172 15.9531C23.4141 16.1406 23.2109 16.1406 23.0078 15.9531C22.9395 15.8188 22.9239 15.6782 22.9609 15.5312C23.4043 15.0355 23.7402 14.473 23.9688 13.8438C23.959 13.8163 23.9433 13.7928 23.9219 13.7734C22.3805 13.3451 20.8336 12.9545 19.2812 12.6016C18.1562 13.7266 17.0312 14.8516 15.9062 15.9766C17.4428 17.2092 19.1459 17.5061 21.0156 16.8672C21.2556 16.7706 21.49 16.6613 21.7188 16.5391C22.031 16.4688 22.2029 16.5938 22.2344 16.9141C22.2285 16.9903 22.2051 17.0606 22.1641 17.125C21.2208 17.6871 20.1973 17.9683 19.0938 17.9688C19.1155 19.1899 19.092 20.4086 19.0234 21.625C17.8955 22.7607 16.7627 23.8857 15.625 25C11.8125 25 7.99998 25 4.1875 25C3.70547 24.7455 3.51797 24.3393 3.625 23.7812C2.61427 23.8799 2.17677 23.4268 2.3125 22.4219C1.73511 22.5687 1.29761 22.3968 1 21.9062C1 15.1094 1 8.3125 1 1.51562C1.125 1.29687 1.29687 1.125 1.51562 1ZM1.84375 1.70312C6.42189 1.69531 11 1.70312 15.5781 1.72656C15.6667 1.90638 15.6979 2.1017 15.6719 2.3125C12.9062 2.30469 10.1406 2.3125 7.375 2.33594C7.14362 2.53955 7.12802 2.7583 7.32812 2.99219C10.5442 3.06203 13.7629 3.08547 16.9844 3.0625C16.9844 3.23438 16.9844 3.40625 16.9844 3.57812C12.7187 3.57031 8.45308 3.57812 4.1875 3.60156C3.89542 3.69358 3.71573 3.88889 3.64844 4.1875C3.625 10.4688 3.61719 16.75 3.625 23.0312C3.44047 23.045 3.26078 23.0294 3.08594 22.9844C3.0625 16.3438 3.05469 9.70314 3.0625 3.0625C3.93764 3.07031 4.81264 3.0625 5.6875 3.03906C5.88081 2.99305 5.97456 2.86804 5.96875 2.66406C5.95492 2.52703 5.89239 2.41765 5.78125 2.33594C4.8125 2.30469 3.84375 2.30469 2.875 2.33594C2.60156 2.42187 2.42187 2.60156 2.33594 2.875C2.3125 9.14059 2.30469 15.4062 2.3125 21.6719C2.125 21.6719 1.9375 21.6719 1.75 21.6719C1.71895 15.0058 1.75019 8.34953 1.84375 1.70312ZM4.42188 4.32812C9.04698 4.3125 13.672 4.32812 18.2969 4.375C18.343 5.04459 18.3586 5.71647 18.3438 6.39062C15.7536 6.86345 14.1364 8.37906 13.4922 10.9375C13.0799 13.6353 14.0096 15.7213 16.2812 17.1953C16.9245 17.5582 17.612 17.7847 18.3438 17.875C18.3438 18.9219 18.3438 19.9688 18.3438 21.0156C17.453 21.0078 16.5624 21.0156 15.6719 21.0391C15.3639 21.144 15.1686 21.3549 15.0859 21.6719C15.0625 22.5467 15.0547 23.4217 15.0625 24.2969C11.5137 24.3123 7.9668 24.2967 4.42188 24.25C4.35947 17.6062 4.35947 10.9655 4.42188 4.32812ZM18.8594 7.04688C19.5749 7.01898 20.2624 7.13617 20.9219 7.39844C20.2361 8.90275 19.5565 10.4106 18.8828 11.9219C17.7109 13.0938 16.5391 14.2656 15.3672 15.4375C14.0551 13.8013 13.7895 12.0044 14.5703 10.0469C15.4616 8.27702 16.8913 7.27698 18.8594 7.04688ZM21.5781 7.70312C22.5783 8.21125 23.3205 8.97691 23.8047 10C24.233 10.9762 24.3658 11.9918 24.2031 13.0469C22.6984 12.6904 21.214 12.2841 19.75 11.8281C20.3778 10.4598 20.9872 9.08481 21.5781 7.70312ZM9.4375 16.6094C9.78123 16.6094 10.125 16.6094 10.4688 16.6094C10.4688 18.1562 10.4688 19.7031 10.4688 21.25C10.125 21.25 9.78123 21.25 9.4375 21.25C9.4375 19.7031 9.4375 18.1562 9.4375 16.6094ZM11.2188 18.2031C11.5469 18.2031 11.875 18.2031 12.2031 18.2031C12.2031 19.2188 12.2031 20.2344 12.2031 21.25C11.875 21.25 11.5469 21.25 11.2188 21.25C11.2188 20.2344 11.2188 19.2188 11.2188 18.2031ZM7.70312 19.0938C8.03125 19.0938 8.35938 19.0938 8.6875 19.0938C8.6875 19.8125 8.6875 20.5313 8.6875 21.25C8.35938 21.25 8.03125 21.25 7.70312 21.25C7.70312 20.5313 7.70312 19.8125 7.70312 19.0938ZM15.8594 21.7656C16.4845 21.7578 17.1096 21.7656 17.7344 21.7891C17.1186 22.4518 16.4858 23.1002 15.8359 23.7344C15.7978 23.0746 15.8056 22.4184 15.8594 21.7656Z" fill="#424246" stroke="#424246" stroke-width="0.5"/>
<path opacity="0.931" fill-rule="evenodd" clip-rule="evenodd" d="M6.57823 6.76441C8.9689 6.75658 11.3595 6.76441 13.7501 6.78785C13.8915 6.85952 13.954 6.97671 13.9376 7.13941C13.954 7.30211 13.8915 7.4193 13.7501 7.49097C11.3439 7.52224 8.93759 7.52224 6.53135 7.49097C6.38998 7.4193 6.32749 7.30211 6.34385 7.13941C6.34601 6.96565 6.42415 6.84068 6.57823 6.76441Z" fill="#424246" stroke="#424246" stroke-width="0.5"/>
<path opacity="0.93" fill-rule="evenodd" clip-rule="evenodd" d="M6.57823 9.34473C8.42206 9.33691 10.2658 9.34473 12.1095 9.36817C12.2855 9.41453 12.3636 9.53172 12.3439 9.71973C12.3602 9.88244 12.2977 9.99962 12.1564 10.0713C10.2814 10.1026 8.40635 10.1026 6.53135 10.0713C6.38998 9.99962 6.32749 9.88244 6.34385 9.71973C6.34601 9.54597 6.42415 9.421 6.57823 9.34473Z" fill="#424246" stroke="#424246" stroke-width="0.5"/>
<path opacity="0.929" fill-rule="evenodd" clip-rule="evenodd" d="M6.57823 11.9207C8.17207 11.9128 9.76582 11.9207 11.3595 11.9441C11.5369 11.9942 11.6151 12.1114 11.5939 12.2957C11.6102 12.4584 11.5477 12.5756 11.4064 12.6472C9.78134 12.6785 8.15637 12.6785 6.53135 12.6472C6.38998 12.5756 6.32749 12.4584 6.34385 12.2957C6.34601 12.1219 6.42415 11.9969 6.57823 11.9207Z" fill="#424246" stroke="#424246" stroke-width="0.5"/>
<path opacity="0.94" fill-rule="evenodd" clip-rule="evenodd" d="M8.96886 15.8582C9.62529 15.8503 10.2815 15.8582 10.9376 15.8816C11.0704 15.9206 11.1564 16.0066 11.1954 16.1394C11.2189 16.5766 11.2266 17.0141 11.2189 17.4519C11.7191 17.4441 12.2191 17.4519 12.7189 17.4753C12.8026 17.5121 12.8729 17.5668 12.9298 17.6394C12.9532 18.8425 12.9611 20.0456 12.9532 21.2488C13.4574 21.1896 13.6293 21.3927 13.4689 21.8582C13.4142 21.909 13.3518 21.948 13.2814 21.9753C11.0626 22.0066 8.84384 22.0066 6.62511 21.9753C6.38609 21.8959 6.30017 21.7318 6.36729 21.4832C6.40634 21.3816 6.47665 21.3113 6.57823 21.2722C6.70226 21.2489 6.82728 21.2411 6.95323 21.2488C6.9454 20.3424 6.95323 19.4361 6.97667 18.53C7.03358 18.4574 7.10389 18.4028 7.18761 18.366C7.68734 18.3425 8.18736 18.3347 8.68761 18.3425C8.67978 17.608 8.68761 16.8736 8.71104 16.1394C8.74306 15.9904 8.82898 15.8966 8.96886 15.8582ZM9.43761 16.6082C9.43761 18.155 9.43761 19.7019 9.43761 21.2488C9.78134 21.2488 10.1251 21.2488 10.4689 21.2488C10.4689 19.7019 10.4689 18.155 10.4689 16.6082C10.1251 16.6082 9.78134 16.6082 9.43761 16.6082ZM11.2189 18.2019C11.2189 19.2176 11.2189 20.2331 11.2189 21.2488C11.547 21.2488 11.8751 21.2488 12.2032 21.2488C12.2032 20.2331 12.2032 19.2176 12.2032 18.2019C11.8751 18.2019 11.547 18.2019 11.2189 18.2019ZM7.70323 19.0925C7.70323 19.8113 7.70323 20.5301 7.70323 21.2488C8.03136 21.2488 8.35948 21.2488 8.68761 21.2488C8.68761 20.5301 8.68761 19.8113 8.68761 19.0925C8.35948 19.0925 8.03136 19.0925 7.70323 19.0925Z" fill="#424246" stroke="#424246" stroke-width="0.5"/>
</svg>
