<svg width="26" height="26" viewBox="0 0 26 26" fill="none" xmlns="http://www.w3.org/2000/svg">
<path d="M19.9006 1.67607C23.1577 5.79185 23.7425 9.02394 23.8845 14.3876C24.0048 18.1682 24.1617 21.3189 25 25C18.5492 25 12.0984 25 5.45218 25C5.73265 23.7685 6.01311 22.537 6.30208 21.2682C6.49151 18.855 6.65321 16.4546 6.78015 14.0378C6.81686 13.3871 6.85356 12.7365 6.89137 12.0662C6.98107 10.4689 7.06691 8.87137 7.15199 7.27381C6.59105 7.27381 6.03011 7.27381 5.45218 7.27381C4.61077 10.3526 3.76936 13.4313 2.90246 16.6034C3.74387 16.6034 4.58527 16.6034 5.45218 16.6034C5.45218 17.2191 5.45218 17.8349 5.45218 18.4693C4.04983 18.1614 2.64749 17.8535 1.20265 17.5363C0.846084 12.996 0.723716 10.9434 2.90246 6.98226C6.90005 2.45844 14.3047 -0.367645 19.9006 1.67607ZM12.2514 4.47494C9.01596 8.69743 8.39594 12.0753 8.63932 17.4197C8.70944 19.6133 8.77956 21.807 8.8518 24.067C13.0588 24.067 17.2659 24.067 21.6004 24.067C21.6705 21.8734 21.7406 19.6798 21.8129 17.4197C21.8438 16.7401 21.8748 16.0604 21.9066 15.3602C21.9785 10.6676 20.9818 7.99993 18.2008 4.47494C17.3594 4.47494 16.5179 4.47494 15.651 4.47494C15.9315 6.01432 16.212 7.5537 16.5009 9.13973C15.6595 9.13973 14.8181 9.13973 13.9512 9.13973C13.9512 7.60035 13.9512 6.06097 13.9512 4.47494C13.3903 4.47494 12.8294 4.47494 12.2514 4.47494Z" stroke="#B3B7C9"/>
<path d="M10.5518 11.9395C11.9541 11.9395 13.3564 11.9395 14.8013 11.9395C15.0818 12.5552 15.3622 13.171 15.6512 13.8054C16.7731 13.4975 17.8949 13.1896 19.0508 12.8724C18.7703 13.796 18.4899 14.7197 18.2009 15.6713C18.7618 15.9792 19.3228 16.287 19.9007 16.6042C19.9007 18.1436 19.9007 19.683 19.9007 21.269C18.4984 21.269 17.096 21.269 15.6512 21.269C15.3707 20.6533 15.0903 20.0375 14.8013 19.4031C13.6794 19.711 12.5575 20.0189 11.4017 20.3361C11.6821 19.4124 11.9626 18.4888 12.2516 17.5372C11.6906 17.2293 11.1297 16.9214 10.5518 16.6042C10.5518 15.0649 10.5518 13.5255 10.5518 11.9395Z" stroke="#B3B7C9"/>
</svg>
