<svg width="26" height="26" viewBox="0 0 26 26" fill="none" xmlns="http://www.w3.org/2000/svg">
<path d="M13.0007 17.2859C15.3675 17.2859 17.2861 15.3673 17.2861 13.0005C17.2861 10.6337 15.3675 8.71509 13.0007 8.71509C10.634 8.71509 8.71533 10.6337 8.71533 13.0005C8.71533 15.3673 10.634 17.2859 13.0007 17.2859Z" stroke="#B3B7C9" stroke-width="2" stroke-miterlimit="10" stroke-linecap="round" stroke-linejoin="round"/>
<path d="M25 14.2856V11.7144L22.0962 10.553C21.8819 9.75338 21.5674 8.99743 21.1628 8.29634L22.3936 5.42426L20.5757 3.60639L17.7037 4.83715C17.0034 4.43261 16.2466 4.11892 15.447 3.90379L14.2856 1H11.7144L10.553 3.90379C9.75337 4.11806 8.99743 4.43261 8.29634 4.83715L5.42425 3.60639L3.60639 5.42426L4.83715 8.29634C4.43261 8.99657 4.11892 9.75338 3.90379 10.553L1 11.7144V14.2856L3.90379 15.447C4.11806 16.2466 4.43261 17.0026 4.83715 17.7037L3.60639 20.5757L5.42425 22.3936L8.29634 21.1628C8.99657 21.5674 9.75337 21.8811 10.553 22.0962L11.7144 25H14.2856L15.447 22.0962C16.2466 21.8819 17.0026 21.5674 17.7037 21.1628L20.5757 22.3936L22.3936 20.5757L21.1628 17.7037C21.5674 17.0034 21.8811 16.2466 22.0962 15.447L25 14.2856Z" stroke="#B3B7C9" stroke-width="2" stroke-miterlimit="10" stroke-linecap="round" stroke-linejoin="round"/>
</svg>
