<svg width="26" height="26" viewBox="0 0 26 26" fill="none" xmlns="http://www.w3.org/2000/svg">
<path d="M1 1C8.92 1 16.84 1 25 1C25 8.92 25 16.84 25 25C17.08 25 9.16 25 1 25C1 17.08 1 9.16 1 1ZM1.85714 2.5C1.81925 3.72402 1.8077 4.93422 1.81529 6.1582C1.81572 6.48206 1.81615 6.80592 1.8166 7.13959C1.81885 8.35348 1.82483 9.56737 1.83036 10.7812C1.8392 13.4934 1.84804 16.2056 1.85714 19C9.21143 19 16.5657 19 24.1429 19C24.1561 14.9317 24.1561 14.9317 24.1696 10.7812C24.1735 9.92439 24.1774 9.06752 24.1815 8.18469C24.1827 7.5092 24.1838 6.8337 24.1847 6.1582C24.1869 5.8045 24.1891 5.45079 24.1914 5.08636C24.1915 4.22404 24.1695 3.36177 24.1429 2.5C23.4453 1.68623 22.668 1.93631 21.7054 1.9353C21.2778 1.93373 20.8502 1.93215 20.4096 1.93053C19.7118 1.93204 19.7118 1.93204 19 1.93359C18.526 1.93312 18.052 1.93264 17.5636 1.93214C16.5592 1.9318 15.5547 1.93273 14.5502 1.93481C13.0067 1.93749 11.4632 1.93484 9.91964 1.93164C8.94643 1.93197 7.97321 1.93261 7 1.93359C6.30225 1.93208 6.30225 1.93208 5.5904 1.93053C5.1628 1.9321 4.7352 1.93368 4.29464 1.9353C3.72699 1.9359 3.72699 1.9359 3.14788 1.93651C2.28671 1.88865 2.28671 1.88865 1.85714 2.5ZM1.85714 20C1.85714 21.155 1.85714 22.31 1.85714 23.5C2.55466 24.3138 3.33202 24.0637 4.29464 24.0647C4.72224 24.0663 5.14984 24.0679 5.5904 24.0695C6.05557 24.0685 6.52074 24.0674 7 24.0664C7.71101 24.0671 7.71101 24.0671 8.43638 24.0679C9.44085 24.0682 10.4453 24.0673 11.4498 24.0652C12.9933 24.0625 14.5368 24.0652 16.0804 24.0684C17.0536 24.068 18.0268 24.0674 19 24.0664C19.4652 24.0674 19.9303 24.0684 20.4096 24.0695C20.8372 24.0679 21.2648 24.0663 21.7054 24.0647C22.273 24.0641 22.273 24.0641 22.8521 24.0635C23.7133 24.1114 23.7133 24.1114 24.1429 23.5C24.1429 22.345 24.1429 21.19 24.1429 20C16.7886 20 9.43429 20 1.85714 20Z" fill="#424246" stroke="#424246" stroke-width="0.8"/>
<path d="M23.2858 5.50049C23.04 6.93411 22.9166 7.43121 22.0001 8.50049C21.1429 8.83382 20.2858 9.16716 19.4286 9.50049C19.1458 9.83049 18.8629 10.1605 18.5715 10.5005C18.1914 10.4902 17.8113 10.4799 17.4197 10.4692C15.339 10.515 13.6224 11.2744 12.1429 13.0005C10.7299 12.8356 10.1618 12.6891 9.14293 11.5005C8.08165 11.6203 7.5833 11.784 6.89293 12.7505C5.66549 13.9779 4.29868 13.849 2.71436 14.0005C2.74114 13.0942 2.74114 13.0942 3.14293 12.0005C4.13022 11.4672 5.13158 10.9684 6.14293 10.5005C6.37275 10.2117 6.60257 9.92299 6.83936 9.62549C7.03382 9.41924 7.22828 9.21299 7.42864 9.00049C8.8609 9.12275 9.4024 9.30321 10.4286 10.5005C11.6863 10.3171 12.0848 10.0683 13.0001 9.00049C14.3947 8.33485 15.4238 7.99711 16.9376 8.03174C18.1401 8.15513 18.1401 8.15513 18.7858 7.31299C18.9979 7.04486 19.2101 6.77674 19.4286 6.50049C20.7996 5.86736 21.808 5.50049 23.2858 5.50049Z" fill="#424246" stroke="#424246" stroke-width="0.8"/>
<path d="M22.4287 21.0002C22.7116 21.0002 22.9944 21.0002 23.2859 21.0002C23.2859 21.6602 23.2859 22.3202 23.2859 23.0002C23.003 23.0002 22.7201 23.0002 22.4287 23.0002C22.4287 22.3402 22.4287 21.6802 22.4287 21.0002Z" fill="#424246" stroke="#424246" stroke-width="0.8"/>
<path d="M20.2856 21.0002C20.5685 21.0002 20.8514 21.0002 21.1428 21.0002C21.1428 21.6602 21.1428 22.3202 21.1428 23.0002C20.8599 23.0002 20.5771 23.0002 20.2856 23.0002C20.2856 22.3402 20.2856 21.6802 20.2856 21.0002Z" fill="#424246" stroke="#424246" stroke-width="0.8"/>
<path d="M18.1431 21.0002C18.4259 21.0002 18.7088 21.0002 19.0002 21.0002C19.0002 21.6602 19.0002 22.3202 19.0002 23.0002C18.7174 23.0002 18.4345 23.0002 18.1431 23.0002C18.1431 22.3402 18.1431 21.6802 18.1431 21.0002Z" fill="#424246" stroke="#424246" stroke-width="0.8"/>
<path d="M16 21.0002C16.2829 21.0002 16.5657 21.0002 16.8571 21.0002C16.8571 21.6602 16.8571 22.3202 16.8571 23.0002C16.5743 23.0002 16.2914 23.0002 16 23.0002C16 22.3402 16 21.6802 16 21.0002Z" fill="#424246" stroke="#424246" stroke-width="0.8"/>
<path d="M13.8569 21.0002C14.1398 21.0002 14.4226 21.0002 14.7141 21.0002C14.7141 21.6602 14.7141 22.3202 14.7141 23.0002C14.4312 23.0002 14.1484 23.0002 13.8569 23.0002C13.8569 22.3402 13.8569 21.6802 13.8569 21.0002Z" fill="#424246" stroke="#424246" stroke-width="0.8"/>
<path d="M11.7144 21.0002C11.9972 21.0002 12.2801 21.0002 12.5715 21.0002C12.5715 21.6602 12.5715 22.3202 12.5715 23.0002C12.2886 23.0002 12.0058 23.0002 11.7144 23.0002C11.7144 22.3402 11.7144 21.6802 11.7144 21.0002Z" fill="#424246" stroke="#424246" stroke-width="0.8"/>
<path d="M9.57129 21.0002C9.85415 21.0002 10.137 21.0002 10.4284 21.0002C10.4284 21.6602 10.4284 22.3202 10.4284 23.0002C10.1456 23.0002 9.86272 23.0002 9.57129 23.0002C9.57129 22.3402 9.57129 21.6802 9.57129 21.0002Z" fill="#424246" stroke="#424246" stroke-width="0.8"/>
<path d="M7.42871 21.0002C7.71157 21.0002 7.99443 21.0002 8.28585 21.0002C8.28585 21.6602 8.28585 22.3202 8.28585 23.0002C8.003 23.0002 7.72014 23.0002 7.42871 23.0002C7.42871 22.3402 7.42871 21.6802 7.42871 21.0002Z" fill="#424246" stroke="#424246" stroke-width="0.8"/>
<path d="M5.28564 21.0002C5.5685 21.0002 5.85136 21.0002 6.14279 21.0002C6.14279 21.6602 6.14279 22.3202 6.14279 23.0002C5.85993 23.0002 5.57707 23.0002 5.28564 23.0002C5.28564 22.3402 5.28564 21.6802 5.28564 21.0002Z" fill="#424246" stroke="#424246" stroke-width="0.8"/>
<path d="M3.14307 21.0002C3.42592 21.0002 3.70878 21.0002 4.00021 21.0002C4.00021 21.6602 4.00021 22.3202 4.00021 23.0002C3.71735 23.0002 3.43449 23.0002 3.14307 23.0002C3.14307 22.3402 3.14307 21.6802 3.14307 21.0002Z" fill="#424246" stroke="#424246" stroke-width="0.8"/>
<path d="M17.2856 17.501C17.5685 17.501 17.8514 17.501 18.1428 17.501C18.1428 17.831 18.1428 18.161 18.1428 18.501C17.8599 18.501 17.5771 18.501 17.2856 18.501C17.2856 18.171 17.2856 17.841 17.2856 17.501Z" fill="#424246" stroke="#424246" stroke-width="0.8"/>
<path d="M7.85693 17.501C8.13979 17.501 8.42265 17.501 8.71408 17.501C8.71408 17.831 8.71408 18.161 8.71408 18.501C8.43122 18.501 8.14836 18.501 7.85693 18.501C7.85693 18.171 7.85693 17.841 7.85693 17.501Z" fill="#424246" stroke="#424246" stroke-width="0.8"/>
<path d="M17.2856 15.5005C17.5685 15.5005 17.8514 15.5005 18.1428 15.5005C18.1428 15.8305 18.1428 16.1605 18.1428 16.5005C17.8599 16.5005 17.5771 16.5005 17.2856 16.5005C17.2856 16.1705 17.2856 15.8405 17.2856 15.5005Z" fill="#424246" stroke="#424246" stroke-width="0.8"/>
<path d="M7.85693 15.5005C8.13979 15.5005 8.42265 15.5005 8.71408 15.5005C8.71408 15.8305 8.71408 16.1605 8.71408 16.5005C8.43122 16.5005 8.14836 16.5005 7.85693 16.5005C7.85693 16.1705 7.85693 15.8405 7.85693 15.5005Z" fill="#424246" stroke="#424246" stroke-width="0.8"/>
<path d="M17.2856 13.5C17.5685 13.5 17.8514 13.5 18.1428 13.5C18.1428 13.83 18.1428 14.16 18.1428 14.5C17.8599 14.5 17.5771 14.5 17.2856 14.5C17.2856 14.17 17.2856 13.84 17.2856 13.5Z" fill="#424246" stroke="#424246" stroke-width="0.8"/>
<path d="M7.85693 13.5C8.13979 13.5 8.42265 13.5 8.71408 13.5C8.71408 13.83 8.71408 14.16 8.71408 14.5C8.43122 14.5 8.14836 14.5 7.85693 14.5C7.85693 14.17 7.85693 13.84 7.85693 13.5Z" fill="#424246" stroke="#424246" stroke-width="0.8"/>
<path d="M17.2856 11.4995C17.5685 11.4995 17.8514 11.4995 18.1428 11.4995C18.1428 11.8295 18.1428 12.1595 18.1428 12.4995C17.8599 12.4995 17.5771 12.4995 17.2856 12.4995C17.2856 12.1695 17.2856 11.8395 17.2856 11.4995Z" fill="#424246" stroke="#424246" stroke-width="0.8"/>
<path d="M7.85693 11.4995C8.13979 11.4995 8.42265 11.4995 8.71408 11.4995C8.71408 11.8295 8.71408 12.1595 8.71408 12.4995C8.43122 12.4995 8.14836 12.4995 7.85693 12.4995C7.85693 12.1695 7.85693 11.8395 7.85693 11.4995Z" fill="#424246" stroke="#424246" stroke-width="0.8"/>
<path d="M17.2856 6.99902C17.5685 6.99902 17.8514 6.99902 18.1428 6.99902C18.1428 7.32902 18.1428 7.65902 18.1428 7.99902C17.8599 7.99902 17.5771 7.99902 17.2856 7.99902C17.2856 7.66902 17.2856 7.33902 17.2856 6.99902Z" fill="#424246" stroke="#424246" stroke-width="0.8"/>
<path d="M7.85693 6.99902C8.13979 6.99902 8.42265 6.99902 8.71408 6.99902C8.71408 7.32902 8.71408 7.65902 8.71408 7.99902C8.43122 7.99902 8.14836 7.99902 7.85693 7.99902C7.85693 7.66902 7.85693 7.33902 7.85693 6.99902Z" fill="#424246" stroke="#424246" stroke-width="0.8"/>
<path d="M17.2856 5.00098C17.5685 5.00098 17.8514 5.00098 18.1428 5.00098C18.1428 5.33098 18.1428 5.66098 18.1428 6.00098C17.8599 6.00098 17.5771 6.00098 17.2856 6.00098C17.2856 5.67098 17.2856 5.34098 17.2856 5.00098Z" fill="#424246" stroke="#424246" stroke-width="0.8"/>
<path d="M7.85693 5.00098C8.13979 5.00098 8.42265 5.00098 8.71408 5.00098C8.71408 5.33098 8.71408 5.66098 8.71408 6.00098C8.43122 6.00098 8.14836 6.00098 7.85693 6.00098C7.85693 5.67098 7.85693 5.34098 7.85693 5.00098Z" fill="#424246" stroke="#424246" stroke-width="0.8"/>
<path d="M17.2856 3.00049C17.5685 3.00049 17.8514 3.00049 18.1428 3.00049C18.1428 3.33049 18.1428 3.66049 18.1428 4.00049C17.8599 4.00049 17.5771 4.00049 17.2856 4.00049C17.2856 3.67049 17.2856 3.34049 17.2856 3.00049Z" fill="#424246" stroke="#424246" stroke-width="0.8"/>
<path d="M7.85693 3.00049C8.13979 3.00049 8.42265 3.00049 8.71408 3.00049C8.71408 3.33049 8.71408 3.66049 8.71408 4.00049C8.43122 4.00049 8.14836 4.00049 7.85693 4.00049C7.85693 3.67049 7.85693 3.34049 7.85693 3.00049Z" fill="#424246" stroke="#424246" stroke-width="0.8"/>
</svg>
